<svg width="34" height="34" viewBox="0 0 34 34" fill="none" xmlns="http://www.w3.org/2000/svg">
<path d="M25.789 8.16275C23.4572 5.8295 20.3561 4.54316 17.0524 4.54175C10.2425 4.54175 4.70192 10.0795 4.70051 16.8866C4.69767 19.0527 5.26576 21.1819 6.34809 23.059L4.59567 29.4567L11.1435 27.7397C12.9554 28.7257 14.9841 29.2427 17.0468 29.2427H17.0524C23.8595 29.2427 29.4001 23.7036 29.4029 16.8965C29.4043 13.5985 28.1208 10.4974 25.789 8.16275Z" stroke="#43D854" stroke-width="1.5" stroke-linecap="round" stroke-linejoin="round"/>
<path d="M18.5513 19.2099L19.1264 18.6389C19.6548 18.1148 20.4907 18.0482 21.0998 18.476C21.6892 18.8897 22.2218 19.2609 22.7177 19.6065C23.5053 20.1534 23.6003 21.2754 22.9217 21.9525L22.4131 22.4611" stroke="#43D854" stroke-width="1.5" stroke-linecap="round" stroke-linejoin="round"/>
<path d="M11.5388 11.5868L12.0473 11.0782C12.7245 10.4011 13.8465 10.496 14.3933 11.2822C14.7376 11.7781 15.1088 12.3107 15.5238 12.9001C15.9517 13.5092 15.8865 14.3451 15.3609 14.8735L14.79 15.4486" stroke="#43D854" stroke-width="1.5" stroke-linecap="round" stroke-linejoin="round"/>
<path d="M22.4131 22.4611C20.315 24.5493 16.7889 22.7756 14.0052 19.9905" stroke="#43D854" stroke-width="1.5" stroke-linecap="round" stroke-linejoin="round"/>
<path d="M14.008 19.9946C11.2243 17.2094 9.45059 13.6848 11.5388 11.5867" stroke="#43D854" stroke-width="1.5" stroke-linecap="round" stroke-linejoin="round"/>
<path d="M14.79 15.4485C15.2419 16.1611 15.8213 16.8666 16.4758 17.5211L16.4787 17.5239C17.1332 18.1784 17.8387 18.7578 18.5512 19.2097" stroke="#43D854" stroke-width="1.5" stroke-linecap="round" stroke-linejoin="round"/>
</svg>
