<svg width="100" height="100" viewBox="0 0 100 100" fill="none" xmlns="http://www.w3.org/2000/svg">
<g clip-path="url(#clip0)">
<path d="M95.4112 15.3068L78.0084 8.05663C76.0994 7.26151 73.91 7.26171 72.0012 8.05682L63.6457 11.5371C62.8989 11.8484 62.5455 12.7058 62.8567 13.4527C63.1678 14.1996 64.0252 14.5531 64.7723 14.2418L73.1278 10.7613C74.3201 10.2644 75.6887 10.2642 76.8821 10.7611L94.2838 18.0109C95.9764 18.717 97.0703 20.3047 97.0703 22.0553V84.7018C97.0703 87.1379 94.978 89.1197 92.4063 89.1197H90.0313C89.2221 89.1197 88.5664 89.7754 88.5664 90.5846C88.5664 91.3937 89.2221 92.0494 90.0313 92.0494H92.4063C96.5934 92.0494 100 88.7533 100 84.7018V22.0553C100 19.1185 98.1989 16.4697 95.4112 15.3068Z" fill="#0078C1"/>
<path d="M83.6465 89.1199H59.0332C60.0467 87.968 60.6016 86.5064 60.6016 84.9598C60.6016 83.4162 60.0428 82.0016 59.1182 80.9047C59.7012 80.6072 60.241 80.218 60.7176 79.7416C61.9074 78.5516 62.5625 76.9693 62.5625 75.2859C62.5625 73.6813 61.9586 72.2156 60.9674 71.102C61.4582 70.824 61.9152 70.4795 62.3246 70.0697C63.5145 68.8801 64.1697 67.2979 64.1697 65.6141C64.1697 64.0141 63.5695 62.5522 62.584 61.4395C63.083 61.1594 63.5479 60.8106 63.9646 60.3947C65.1537 59.2029 65.8084 57.6211 65.8084 55.94C65.8084 52.4647 62.9818 49.6373 59.5074 49.6373H52.9391V22.0553C52.9391 20.3045 54.033 18.7168 55.7248 18.0111L58.3891 16.9018C59.1359 16.5908 59.4893 15.7334 59.1783 14.9863C58.8672 14.2395 58.0098 13.8856 57.2629 14.1971L54.5977 15.3068C51.8104 16.4695 50.0094 19.1186 50.0094 22.0553V49.6375H43.8889C45.927 43.1969 45.7535 36.4752 43.375 28.6738C43.0137 27.4924 42.2949 26.4805 41.2959 25.7475C40.3027 25.019 39.1258 24.6336 37.892 24.6336C36.3025 24.6336 34.8246 25.2684 33.7301 26.4209C32.6361 27.5732 32.0791 29.0818 32.1615 30.6686C32.6195 39.4766 28.5566 42.5082 22.9334 46.7045C21.082 48.0859 19.0586 49.5969 17.0699 51.4498V49.5299C17.0699 48.7207 16.4143 48.065 15.6051 48.065H1.46484C0.655664 48.065 0 48.7207 0 49.5299V91.0748C0 91.884 0.655664 92.5397 1.46484 92.5397H15.6055C16.4146 92.5397 17.0703 91.884 17.0703 91.0748V87.3897C19.8525 87.6543 21.8846 88.2088 23.8588 89.7219C25.1549 90.7152 26.7525 91.2623 28.3574 91.2623H54.1916C55.2471 91.7768 56.4172 92.0494 57.6033 92.0494H83.6463C84.4555 92.0494 85.1111 91.3938 85.1111 90.5846C85.1111 89.7754 84.4555 89.1199 83.6465 89.1199ZM25.641 87.3965C22.8789 85.2799 19.927 84.6918 17.0703 84.4451V67.3406C17.0703 66.5315 16.4146 65.8758 15.6055 65.8758C14.7963 65.8758 14.1406 66.5315 14.1406 67.3406V89.6102H2.92969V50.9949H14.1406V60.958C14.1406 61.7672 14.7963 62.4229 15.6055 62.4229C16.4146 62.4229 17.0703 61.7672 17.0703 60.958V55.6113C19.5207 52.9072 22.1445 50.9492 24.6859 49.0527C30.3127 44.8541 35.6271 40.8881 35.0879 30.5166C35.0475 29.7402 35.3199 29.0022 35.8555 28.4383C36.391 27.874 37.1145 27.5635 37.8926 27.5635C38.4986 27.5635 39.0762 27.7523 39.5631 28.1098C40.0492 28.4664 40.3986 28.9578 40.5736 29.5299C42.9961 37.4762 42.9582 44.1617 40.4543 50.5697C40.2781 51.0205 40.3361 51.5291 40.609 51.9289C40.8818 52.3287 41.3346 52.5678 41.8186 52.5678H59.5078C61.3668 52.5678 62.8791 54.0809 62.8791 55.9408C62.8791 56.8402 62.5281 57.6873 61.8932 58.3238C61.2545 58.9609 60.4076 59.3119 59.5078 59.3119H53.4902C52.6811 59.3119 52.0254 59.9676 52.0254 60.7768C52.0254 61.5859 52.6811 62.2416 53.4902 62.2416H57.8691C59.7279 62.2416 61.2402 63.7547 61.2402 65.6148C61.2402 66.5158 60.8898 67.3625 60.2531 67.999C59.6168 68.6356 58.7701 68.9859 57.8691 68.9859H53.4902C52.6811 68.9859 52.0254 69.6416 52.0254 70.4508C52.0254 71.26 52.6811 71.9156 53.4902 71.9156H56.2615C58.1205 71.9156 59.6328 73.4279 59.6328 75.2867C59.6328 76.1875 59.2822 77.0344 58.6459 77.6709C58.008 78.3088 57.1611 78.6598 56.2615 78.6598H54.3006H51.8826C51.0734 78.6598 50.4178 79.3154 50.4178 80.1246C50.4178 80.9338 51.0734 81.5895 51.8826 81.5895H54.3006C56.1596 81.5895 57.6719 83.1018 57.6719 84.9605C57.6719 85.8613 57.3209 86.709 56.6861 87.3453C56.0912 87.9389 55.1514 88.3176 54.448 88.3301C54.3994 88.3309 28.3574 88.3336 28.3574 88.3336C27.3934 88.3326 26.4285 88.0002 25.641 87.3965Z" fill="#0078C1"/>
<path d="M80.2914 22.706C80.2914 19.6279 77.7871 17.1236 74.709 17.1236C71.6309 17.1236 69.1266 19.6279 69.1266 22.706C69.1266 25.7841 71.6309 28.2884 74.709 28.2884C77.7871 28.2884 80.2914 25.7841 80.2914 22.706ZM72.0563 22.706C72.0563 21.2433 73.2463 20.0533 74.709 20.0533C76.1717 20.0533 77.3617 21.2433 77.3617 22.706C77.3617 24.1687 76.1717 25.3588 74.709 25.3588C73.2463 25.3588 72.0563 24.1689 72.0563 22.706Z" fill="#0078C1"/>
<path d="M75.6242 72.6884H72.9971C71.6133 72.6884 70.4875 71.5625 70.4875 70.1787C70.4875 69.3695 69.8318 68.7138 69.0227 68.7138C68.2135 68.7138 67.5578 69.3695 67.5578 70.1787C67.5578 73.1273 69.9164 75.5336 72.8457 75.6142V78.856C72.8457 79.6652 73.5014 80.3209 74.3106 80.3209C75.1197 80.3209 75.7754 79.6652 75.7754 78.856V75.6142C78.7049 75.5336 81.0635 73.1273 81.0635 70.1787V68.1507C81.0635 66.2693 79.8613 64.6148 78.0719 64.0332L71.4547 61.8837C70.8762 61.6957 70.4875 61.1609 70.4875 60.5527V57.649C70.4875 56.5251 71.4018 55.6107 72.5256 55.6107H76.0959C77.2197 55.6107 78.134 56.5251 78.134 57.649C78.134 58.4582 78.7897 59.1138 79.5988 59.1138C80.408 59.1138 81.0637 58.4582 81.0637 57.649C81.0637 54.9097 78.8352 52.681 76.0959 52.681H75.7754V49.4431C75.7754 48.6339 75.1197 47.9783 74.3106 47.9783C73.5014 47.9783 72.8457 48.6339 72.8457 49.4431V52.681H72.5254C69.7863 52.681 67.5576 54.9095 67.5576 57.649V60.5527C67.5576 62.4341 68.7598 64.0886 70.5492 64.6701L77.1662 66.8195C77.7449 67.0076 78.1336 67.5425 78.1336 68.1507V70.1787C78.134 71.5625 77.008 72.6884 75.6242 72.6884Z" fill="#0078C1"/>
</g>
<defs>
<clipPath id="clip0">
<rect width="100" height="100" fill="white"/>
</clipPath>
</defs>
</svg>
