<svg width="100" height="100" viewBox="0 0 100 100" fill="none" xmlns="http://www.w3.org/2000/svg">
<g clip-path="url(#clip0)">
<path d="M98.5352 12.1939H78.7656V1.48492C78.7656 0.675745 78.1098 0.0200806 77.3008 0.0200806H67.8027C66.9938 0.0200806 66.3379 0.675745 66.3379 1.48492C66.3379 2.2941 66.9938 2.94977 67.8027 2.94977H75.8359V69.5298H24.2109V2.94977H61.418C62.227 2.94977 62.8828 2.2941 62.8828 1.48492C62.8828 0.675745 62.227 0.0200806 61.418 0.0200806H22.7461C21.9371 0.0200806 21.2812 0.675745 21.2812 1.48492V12.1939H1.46484C0.655859 12.1939 0 12.8496 0 13.6588V83.1275C0 83.9367 0.655859 84.5923 1.46484 84.5923H19.5547C20.3637 84.5923 21.0195 83.9367 21.0195 83.1275C21.0195 82.3183 20.3637 81.6627 19.5547 81.6627H2.92969V15.1236H21.2812V18.2603H7.53125C6.72227 18.2603 6.06641 18.916 6.06641 19.7252V70.9947C6.06641 71.8039 6.72227 72.4595 7.53125 72.4595H92.4688C93.2777 72.4595 93.9336 71.8039 93.9336 70.9947V50.1783C93.9336 49.3691 93.2777 48.7134 92.4688 48.7134C91.6598 48.7134 91.0039 49.3691 91.0039 50.1783V69.5298H78.7656V27.2173H91.0039V43.7955C91.0039 44.6047 91.6598 45.2603 92.4688 45.2603C93.2777 45.2603 93.9336 44.6047 93.9336 43.7955V19.7252C93.9336 18.916 93.2777 18.2603 92.4688 18.2603H78.7656V15.1236H97.0703V81.6627H25.9375C25.1285 81.6627 24.4727 82.3183 24.4727 83.1275C24.4727 83.9367 25.1285 84.5923 25.9375 84.5923H42.4684V90.9838H37.8662C33.7133 90.9838 30.3346 94.3625 30.3346 98.5154C30.3346 99.3246 30.9904 99.9802 31.7994 99.9802H68.2004C69.0094 99.9802 69.6652 99.3246 69.6652 98.5154C69.6652 94.3625 66.2865 90.9838 62.1336 90.9838H57.5314V84.5923H98.5352C99.3441 84.5923 100 83.9367 100 83.1275V13.6588C100 12.8496 99.3441 12.1939 98.5352 12.1939ZM21.2812 21.1898V24.2875H15.0645V21.1898H21.2812ZM12.1344 21.1902V24.2877H8.99766V21.1902H12.1344ZM8.99609 27.2175L21.2812 27.2173V69.5298H8.99609V27.2175ZM91.0039 21.1898V24.2875H78.7656V21.1898H91.0039ZM66.4967 97.0502H33.5033C34.1164 95.2287 35.8406 93.913 37.8662 93.913H62.1336C64.1594 93.9132 65.8836 95.2287 66.4967 97.0502ZM45.398 90.9836V84.5929H54.602V90.9836H45.398Z" fill="#0078C1"/>
<path d="M53.0334 78.5263C53.8424 78.5263 54.4982 77.8706 54.4982 77.0615C54.4982 76.2523 53.8424 75.5966 53.0334 75.5966H46.9664C46.1574 75.5966 45.5015 76.2523 45.5015 77.0615C45.5015 77.8706 46.1574 78.5263 46.9664 78.5263H53.0334Z" fill="#0078C1"/>
<path d="M62.1338 42.4882H37.8662C37.0572 42.4882 36.4014 43.1439 36.4014 43.9531C36.4014 44.7622 37.0572 45.4179 37.8662 45.4179H62.1336C62.9426 45.4179 63.5984 44.7622 63.5984 43.9531C63.5984 43.1439 62.9428 42.4882 62.1338 42.4882Z" fill="#0078C1"/>
<path d="M43.6728 54.6002H37.5943C36.7853 54.6002 36.1295 55.2558 36.1295 56.065C36.1295 56.8742 36.7853 57.5298 37.5943 57.5298H43.6728C44.4818 57.5298 45.1377 56.8742 45.1377 56.065C45.1377 55.2558 44.482 54.6002 43.6728 54.6002Z" fill="#0078C1"/>
<path d="M62.1338 54.622H50C49.191 54.622 48.5352 55.2777 48.5352 56.0869C48.5352 56.896 49.191 57.5517 50 57.5517H62.1338C62.9428 57.5517 63.5986 56.896 63.5986 56.0869C63.5986 55.2777 62.9428 54.622 62.1338 54.622Z" fill="#0078C1"/>
<path d="M43.6728 48.5331H37.5943C36.7853 48.5331 36.1295 49.1888 36.1295 49.998C36.1295 50.8072 36.7853 51.4628 37.5943 51.4628H43.6728C44.4818 51.4628 45.1377 50.8072 45.1377 49.998C45.1377 49.1888 44.482 48.5331 43.6728 48.5331Z" fill="#0078C1"/>
<path d="M62.1338 48.5552H50C49.191 48.5552 48.5352 49.2109 48.5352 50.0201C48.5352 50.8293 49.191 51.4849 50 51.4849H62.1338C62.9428 51.4849 63.5986 50.8293 63.5986 50.0201C63.5986 49.2109 62.9428 48.5552 62.1338 48.5552Z" fill="#0078C1"/>
<path d="M50 12.1541C42.5018 12.1541 36.4014 18.2542 36.4014 25.7525C36.4014 33.2509 42.5016 39.3511 50 39.3511C57.3879 39.3511 63.5986 33.2146 63.5986 25.7525C63.5986 18.2544 57.4982 12.1541 50 12.1541ZM45.398 35.3765V30.0998C45.401 30.098 45.4045 30.096 45.4084 30.0943L48.5277 29.3066H51.4723L54.5916 30.0943C54.5957 30.0962 54.599 30.0982 54.602 30.0998V35.3765C51.534 36.7699 48.466 36.7699 45.398 35.3765ZM48.4029 24.7798V22.7476C48.4029 21.8669 49.1193 21.1505 50 21.1505C50.8807 21.1505 51.5971 21.8669 51.5971 22.7476V24.7798C51.5971 25.6605 50.8807 26.3769 50 26.3769C49.1193 26.3769 48.4029 25.6605 48.4029 24.7798ZM57.5316 33.3015V30.0537C57.5316 28.1464 55.5283 27.0392 53.9875 26.9203C54.3312 26.2826 54.5268 25.5537 54.5268 24.78V22.7478C54.5268 20.2519 52.4961 18.221 50 18.221C47.5039 18.221 45.4732 20.2517 45.4732 22.7478V24.78C45.4732 25.5539 45.6687 26.2826 46.0125 26.9203C44.4717 27.0392 42.4684 28.1466 42.4684 30.0537V33.3015C40.5314 31.3689 39.3311 28.6984 39.3311 25.7525C39.3311 19.8697 44.117 15.0837 50 15.0837C55.883 15.0837 60.6689 19.8697 60.6689 25.7525C60.6689 28.6984 59.4686 31.3691 57.5316 33.3015Z" fill="#0078C1"/>
</g>
<defs>
<clipPath id="clip0">
<rect width="100" height="100" fill="white"/>
</clipPath>
</defs>
</svg>
