<svg width="100" height="97" viewBox="0 0 100 97" fill="none" xmlns="http://www.w3.org/2000/svg">
<path d="M92.1582 0.0594482H19.6994C15.3753 0.0594482 11.8576 3.57716 11.8576 7.90106V38.5062L5.53203 47.0791C5.05249 47.7291 5.19056 48.6449 5.84055 49.1244C6.10207 49.3173 6.4061 49.4101 6.70779 49.4101C7.15632 49.4101 7.59901 49.2044 7.88588 48.8157L11.8574 43.4331V60.8092C11.8574 63.2879 13.0361 65.5918 14.9615 67.056L13.5815 68.9976C13.1137 69.656 13.2681 70.569 13.9265 71.0371C14.5851 71.5051 15.498 71.3507 15.966 70.6921L29.3699 51.8328C29.7905 51.241 30.4173 50.8537 31.135 50.7421C31.8538 50.6308 32.5676 50.8098 33.1481 51.246C34.1585 52.0058 34.4969 53.3854 33.953 54.5264L27.9195 67.1849C27.7986 67.4386 27.7532 67.722 27.7893 68.0009L28.1499 70.8042C28.6234 74.4873 27.9796 78.1815 26.2882 81.4872C26.1739 81.7105 26.1191 81.9596 26.1289 82.2104L26.7635 98.5344C26.7941 99.3223 27.4423 99.9403 28.224 99.9401C28.2431 99.9401 28.2624 99.9397 28.2817 99.9389C29.0891 99.9075 29.7178 99.2279 29.6864 98.4205L29.0664 82.4717C30.8974 78.728 31.5835 74.5735 31.0511 70.4312L30.8222 68.6507H92.158C96.4821 68.6507 99.9998 65.133 99.9998 60.8091V7.90106C100 3.57716 96.4823 0.0594482 92.1582 0.0594482ZM97.0747 60.8094C97.0747 63.5204 94.8691 65.7258 92.1582 65.7258H31.8559L33.2503 62.8006H84.3296C85.4276 62.8006 86.3209 61.9072 86.3209 60.8094V7.90106C86.3209 6.80312 85.4276 5.90975 84.3296 5.90975H38.1591C37.3511 5.90975 36.6965 6.56462 36.6965 7.37237C36.6965 8.18013 37.3511 8.835 38.1591 8.835H83.3957V59.8753H34.6445L36.5939 55.7854C37.7341 53.3932 37.0245 50.5009 34.9062 48.9082C33.6893 47.9932 32.1904 47.6175 30.686 47.8518C29.1817 48.0854 27.8677 48.8974 26.9856 50.1385L20.6333 59.0761V8.83519H31.9256C32.7335 8.83519 33.3882 8.18033 33.3882 7.37257C33.3882 6.56481 32.7335 5.90994 31.9256 5.90994H19.6994C18.6015 5.90994 17.7081 6.80332 17.7081 7.90106V60.8092C17.7081 61.3904 17.96 61.9127 18.3583 62.2769L16.6581 64.669C15.4937 63.7485 14.7826 62.3321 14.7826 60.8094V7.90106C14.7826 5.19014 16.9883 2.9847 19.6992 2.9847H92.158C94.8689 2.9847 97.0745 5.19033 97.0745 7.90106V60.8094H97.0747Z" fill="#0078C1"/>
<path d="M91.6513 32.8926C90.8434 32.8926 90.1887 33.5475 90.1887 34.3553V38.6729C90.1887 39.4807 90.8434 40.1355 91.6513 40.1355C92.4593 40.1355 93.114 39.4807 93.114 38.6729V34.3553C93.114 33.5475 92.4593 32.8926 91.6513 32.8926Z" fill="#0078C1"/>
<path d="M5.73329 75.4719C2.31095 68.809 2.00321 61.0222 4.88887 54.1081C5.19992 53.3625 4.84772 52.506 4.10237 52.1949C3.35701 51.8837 2.5005 52.2359 2.18906 52.9814C-1.0291 60.6928 -0.685679 69.3773 3.13099 76.8086L5.06009 80.5642L4.53218 98.4347C4.50839 99.2421 5.14376 99.9161 5.95093 99.9398C5.96575 99.9402 5.98018 99.9404 5.995 99.9404C6.78287 99.9404 7.43286 99.3137 7.45626 98.5211L7.99529 80.2742C8.0025 80.0271 7.94712 79.7826 7.8344 79.5628L5.73329 75.4719Z" fill="#0078C1"/>
<path d="M52.4858 53.9359C57.4148 53.9359 62.0814 52.0489 65.6252 48.6223C66.2062 48.0608 66.2218 47.1349 65.6601 46.5541C65.0989 45.9735 64.1727 45.9578 63.5922 46.5192C60.5967 49.4156 56.6523 51.0106 52.486 51.0106C43.6742 51.0106 36.5054 43.8416 36.5054 35.0298C36.5054 26.2178 43.6744 19.049 52.486 19.049C61.298 19.049 68.4668 26.218 68.4668 35.0298C68.4668 37.4172 67.9527 39.7139 66.9389 41.8562C66.5935 42.5863 66.9051 43.4584 67.6353 43.804C68.3652 44.1492 69.2375 43.8377 69.5829 43.1076C70.7832 40.5712 71.3919 37.8534 71.3919 35.0298C71.3919 24.6048 62.9106 16.1237 52.4858 16.1237C42.061 16.1237 33.5799 24.605 33.5799 35.0298C33.5799 45.4546 42.061 53.9359 52.4858 53.9359Z" fill="#0078C1"/>
<path d="M51.4243 24.6015C50.2016 23.7579 48.625 23.6623 47.3098 24.3527C45.9947 25.043 45.1775 26.3945 45.1775 27.8799V42.1801C45.1775 43.6655 45.9945 45.017 47.31 45.7074C47.8939 46.0139 48.5293 46.1655 49.1623 46.1655C49.9552 46.1655 50.7445 45.9275 51.4243 45.4585L61.7822 38.3084C62.8595 37.5648 63.5027 36.3392 63.5027 35.03C63.5027 33.7209 62.8595 32.4954 61.7822 31.7516L51.4243 24.6015ZM60.1205 35.9008L49.7626 43.0509C49.2873 43.3789 48.8398 43.2065 48.6697 43.117C48.4993 43.0276 48.1032 42.7574 48.1032 42.1799V27.8797C48.1032 27.3023 48.4993 27.032 48.6695 26.9427C48.7647 26.8928 48.9466 26.8167 49.1713 26.8167C49.3487 26.8167 49.5529 26.8641 49.7626 27.0088L60.1205 34.1589C60.5329 34.4436 60.5776 34.8627 60.5776 35.0298C60.5776 35.1969 60.5329 35.616 60.1205 35.9008Z" fill="#0078C1"/>
</svg>
