<svg width="60" height="60" viewBox="0 0 60 60" fill="none" xmlns="http://www.w3.org/2000/svg">
<path d="M56.0141 14.5769C55.0028 11.1402 52.9053 8.12363 50.0358 5.9789C44.3942 1.55372 39.1199 -0.280704 32.9501 0.0346434C29.6965 0.259289 26.4637 0.721118 23.2773 1.4165C18.7657 2.32469 15.4894 3.91057 13.2589 6.26507C11.4902 8.14848 10.125 10.3735 9.24712 12.8035C8.87634 13.8683 8.57435 14.9558 8.34279 16.0592L8.25877 16.4211C8.04865 17.1986 7.76483 17.9544 7.41116 18.6779C7.20316 19.1417 6.99621 19.6061 6.81844 20.0782C6.58746 20.6073 6.49477 21.1865 6.54891 21.7613C6.75188 22.655 7.26972 23.4459 8.00787 23.9892C8.49806 24.4384 8.82032 24.7538 8.82325 25.0409C8.78446 25.1905 8.72564 25.334 8.64841 25.4677C7.45077 27.9921 5.98325 30.3793 4.27152 32.5877C3.55376 33.4641 2.80084 34.4866 2.95318 35.5275C3.17103 36.3161 3.69203 36.9865 4.40242 37.3923C4.733 37.6221 5.08174 37.8245 5.44537 37.9974C5.87697 38.2171 6.59965 38.5858 6.64946 38.849C6.71531 39.1867 6.67711 39.5364 6.54 39.8518C6.39153 40.1648 6.23731 40.4353 6.10442 40.6701C5.73728 41.3196 5.12205 42.4065 6.0497 43.1842C6.26555 43.3751 6.63469 43.6653 6.97254 43.9235C6.72234 44.3629 6.61008 44.8675 6.65028 45.3716C6.7043 45.7629 6.91734 46.1146 7.23913 46.3438C7.46273 46.5025 7.70202 46.6406 7.93932 46.7765C8.52724 47.1115 8.75669 47.2677 8.83579 47.5797C8.88829 47.9869 8.85138 48.4007 8.7274 48.7921C8.66974 49.0542 8.61314 49.3165 8.57798 49.5781C8.47755 50.4876 8.59228 51.4081 8.91302 52.2651C9.43192 54.1639 11.3456 55.3251 13.2694 54.9086C16.1249 54.22 18.9411 53.3778 21.7057 52.3857C23.9537 53.7133 25.3737 57.7313 25.7437 59.2381C25.8541 59.6851 26.255 59.9994 26.7154 59.9998H51.9983C52.3153 59.9997 52.6135 59.8494 52.8021 59.5945C52.9906 59.3396 53.0471 59.0104 52.9544 58.7074C52.6873 58.0026 52.3071 57.3462 51.8284 56.7641C51.5573 56.4185 51.3163 56.0504 51.1077 55.664C50.6571 54.7413 50.2794 53.785 49.9778 52.8037C49.406 50.8725 49.0116 48.8931 48.7991 46.8902C48.4456 43.8999 48.897 40.8695 50.1067 38.1121C50.8469 36.586 51.7576 35.1486 52.8215 33.8274C53.426 33.0144 54.05 32.1737 54.6125 31.2869C56.191 28.8348 57.0397 25.9845 57.0597 23.0683C57.1198 20.2025 56.7676 17.3428 56.0141 14.5769ZM55.06 23.0401C55.0431 25.5869 54.3017 28.0763 52.9223 30.2173C52.3999 31.0405 51.7984 31.8511 51.2163 32.6353C50.0616 34.0776 49.0744 35.6466 48.274 37.3119C46.9214 40.3964 46.4173 43.7861 46.814 47.1307C47.0403 49.2524 47.4597 51.3488 48.0669 53.3943C48.3985 54.4721 48.8131 55.5224 49.3071 56.5358C49.5668 57.0317 49.8704 57.5033 50.2144 57.945C50.2281 57.963 50.2417 57.9817 50.2543 58.0002H27.4726C26.8066 55.6268 25.5999 53.44 23.9473 51.6111C24.2089 51.5198 24.457 51.4328 24.6875 51.3517C25.4365 51.0896 26.0009 50.8913 26.2851 50.8019C30.5721 49.4563 32.7166 47.508 32.658 45.0109C32.6452 44.4586 32.1868 44.0214 31.6347 44.0344C31.0825 44.0474 30.6451 44.5056 30.6581 45.0578C30.6825 46.0881 29.8398 47.59 25.6845 48.8942C25.3896 48.9875 24.8027 49.1921 24.0264 49.4646C23.3095 49.7156 22.4268 50.0246 21.4609 50.3547L21.4551 50.3567C18.6403 51.3753 15.7725 52.2412 12.8644 52.9504C11.9277 53.1322 11.0157 52.539 10.8019 51.6091C10.5855 51.0474 10.5029 50.4431 10.5608 49.8439C10.5881 49.637 10.6349 49.4299 10.6809 49.2228C10.886 48.5291 10.9178 47.7956 10.7737 47.0867C10.4872 46.1683 9.81418 45.4206 8.93095 45.0393C8.8597 44.9987 8.78739 44.9577 8.71708 44.9162C8.82384 44.6976 8.95204 44.4899 9.09993 44.2967C9.26668 44.0842 9.34028 43.8134 9.30407 43.5458C9.26786 43.2782 9.12477 43.0366 8.90763 42.8762C8.6674 42.6989 8.09612 42.2707 7.68503 41.9425C7.73577 41.8493 7.79342 41.7472 7.84616 41.655C7.99944 41.3834 8.17522 41.0706 8.34619 40.7116C8.66622 40.0121 8.76009 39.2302 8.61478 38.4748C8.38135 37.2488 7.20949 36.6516 6.35403 36.2151C6.06411 36.0779 5.78615 35.9168 5.52295 35.7337C5.31518 35.5894 5.1183 35.4299 4.93409 35.2566C4.93702 35.1063 5.09323 34.7405 5.86279 33.8015C7.64999 31.4978 9.18196 29.007 10.4321 26.3729C10.6728 25.9603 10.8073 25.4943 10.8237 25.0169C10.722 24.0095 10.1874 23.0961 9.35891 22.5141C8.95462 22.144 8.57283 21.7943 8.52982 21.4877C8.53357 21.2448 8.58818 21.0053 8.69001 20.7846C8.85407 20.3486 9.04649 19.9219 9.23692 19.4946C9.64473 18.655 9.96957 17.7774 10.2066 16.8745L10.2916 16.5098C10.5043 15.4886 10.7821 14.4823 11.1236 13.4966C11.9082 11.3207 13.1287 9.32784 14.7104 7.64024C16.6479 5.59535 19.5795 4.20084 23.6722 3.37714C26.7624 2.70191 29.8976 2.25215 33.053 2.03149C38.713 1.74685 43.5684 3.44604 48.8038 7.55341C51.3476 9.42979 53.2049 12.0893 54.0909 15.1236C54.7907 17.7025 55.1173 20.3685 55.06 23.0401Z" fill="white"/>
<path d="M50.7935 16.1731H48.7202C48.49 15.3906 48.1766 14.635 47.7857 13.9192L49.2525 12.4524C49.5953 12.1098 49.6431 11.5707 49.3658 11.1731C48.4044 9.79369 47.2062 8.59558 45.8268 7.63407C45.4297 7.35587 44.8899 7.40345 44.5475 7.7468L43.0807 9.21362C42.3646 8.82257 41.6086 8.50922 40.8258 8.27906V6.20546C40.8256 5.72113 40.4783 5.30652 40.0016 5.2211C38.3458 4.92907 36.6516 4.92907 34.9958 5.2211C34.519 5.30652 34.1718 5.72113 34.1716 6.20546V8.27918C33.3888 8.50933 32.6328 8.82269 31.9167 9.21374L30.4499 7.74692C30.1075 7.40357 29.5678 7.35599 29.1706 7.63419C27.7912 8.59558 26.593 9.79381 25.6316 11.1732C25.3543 11.5707 25.402 12.1099 25.7449 12.4525L27.2117 13.9193C26.8208 14.6351 26.5074 15.3907 26.2772 16.1732H24.204C23.7196 16.1731 23.3047 16.5204 23.2197 16.9973C22.9254 18.6533 22.9254 20.3482 23.2197 22.0041C23.3047 22.4811 23.7196 22.8284 24.204 22.8283H26.2773C26.5075 23.6107 26.8209 24.3663 27.2118 25.0821L25.745 26.5489C25.4022 26.8916 25.3544 27.4306 25.6317 27.8282C26.5931 29.2076 27.7913 30.4059 29.1707 31.3673C29.5683 31.6441 30.107 31.5966 30.45 31.2545L31.9168 29.7877C32.633 30.1788 33.3889 30.4921 34.1717 30.7223V32.796C34.172 33.2803 34.5192 33.6949 34.9959 33.7804C36.6516 34.074 38.346 34.074 40.0017 33.7804C40.4786 33.6949 40.8257 33.2803 40.8259 32.796V30.7223C41.6087 30.4921 42.3647 30.1788 43.0808 29.7877L44.5476 31.2545C44.8905 31.5967 45.4293 31.6443 45.8269 31.3673C47.2063 30.4059 48.4045 29.2076 49.3659 27.8282C49.6432 27.4308 49.5955 26.8916 49.2526 26.5489L47.7858 25.0821C48.1767 24.3662 48.4901 23.6107 48.7204 22.8283H50.7936C51.2781 22.8284 51.6929 22.4811 51.778 22.0041C52.0722 20.3482 52.0722 18.6533 51.778 16.9973C51.6928 16.5204 51.2779 16.1731 50.7935 16.1731ZM49.9274 20.8284H47.9448C47.4753 20.8283 47.069 21.155 46.9683 21.6135C46.7286 22.7102 46.2953 23.7552 45.689 24.7C45.4341 25.0954 45.4898 25.6152 45.8228 25.9475L47.2261 27.3508C46.6702 28.0426 46.0408 28.6719 45.3492 29.2278L43.9459 27.825C43.6135 27.4925 43.0945 27.4364 42.6988 27.6902C41.7538 28.2972 40.7081 28.7307 39.6109 28.9705C39.1524 29.0714 38.8258 29.4775 38.8258 29.947V31.9294C37.9436 32.0241 37.0537 32.0241 36.1715 31.9294V29.947C36.1715 29.4775 35.8449 29.0712 35.3864 28.9705C34.2892 28.7307 33.2435 28.2972 32.2985 27.6902C31.9031 27.4353 31.3833 27.4916 31.0514 27.825L29.6481 29.2278C28.9564 28.6719 28.3271 28.0425 27.7712 27.3508L29.1745 25.9475C29.5074 25.6152 29.5632 25.0955 29.3083 24.7C28.702 23.7553 28.2687 22.7102 28.029 21.6135C27.9283 21.155 27.5219 20.8283 27.0525 20.8284H25.0701C24.9751 19.9459 24.9751 19.0557 25.0701 18.1732H27.0526C27.5221 18.1733 27.9284 17.8466 28.0291 17.388C28.2688 16.2914 28.7021 15.2464 29.3084 14.3016C29.5633 13.9062 29.5076 13.3865 29.1746 13.054L27.7713 11.6507C28.3272 10.959 28.9566 10.3297 29.6482 9.77377L31.0515 11.1766C31.3834 11.5099 31.9031 11.5661 32.2986 11.3114C33.2436 10.7043 34.2893 10.2709 35.3865 10.0311C35.845 9.93021 36.1716 9.52404 36.1716 9.0546V7.07216C37.0538 6.97748 37.9437 6.97748 38.8259 7.07216V9.0546C38.8259 9.52404 39.1525 9.93033 39.611 10.0311C40.7082 10.2709 41.7539 10.7043 42.6989 11.3114C43.0946 11.5651 43.6135 11.5089 43.946 11.1766L45.3493 9.77377C46.041 10.3297 46.6703 10.9591 47.2262 11.6507L45.8229 13.054C45.49 13.3864 45.4342 13.9061 45.6891 14.3016C46.2954 15.2462 46.7287 16.2914 46.9684 17.388C47.0691 17.8466 47.4755 18.1733 47.9449 18.1732H49.9274C50.0224 19.0556 50.0224 19.9459 49.9274 20.8284Z" fill="white"/>
<path d="M23.999 29.0005H22.8569C22.7637 28.6425 22.6207 28.2993 22.4321 27.9812L23.2411 27.1719C23.6316 26.7814 23.6316 26.1484 23.2411 25.7578C22.8507 25.3673 22.2176 25.3673 21.827 25.7578L21.0179 26.5671C20.6997 26.3787 20.3567 26.2357 19.9989 26.1424V25.0004C19.9989 24.4481 19.5512 24.0005 18.999 24.0005C18.4468 24.0005 17.9991 24.4483 17.9991 25.0004V26.1424C17.6412 26.2357 17.2982 26.3787 16.9801 26.5671L16.1711 25.7578C15.9185 25.5052 15.5503 25.4066 15.2052 25.4991C14.8601 25.5915 14.5907 25.861 14.4982 26.206C14.4058 26.551 14.5045 26.9192 14.757 27.1719L15.566 27.9812C15.3774 28.2993 15.2344 28.6425 15.1412 29.0005H13.9992C13.4469 29.0005 12.9992 29.4481 12.9992 30.0004C12.9992 30.5527 13.4469 31.0004 13.9992 31.0004H15.1412C15.2344 31.3584 15.3774 31.7015 15.566 32.0196L14.757 32.8289C14.5045 33.0816 14.4058 33.4497 14.4982 33.7948C14.5907 34.1398 14.8602 34.4093 15.2052 34.5017C15.5502 34.5942 15.9184 34.4955 16.1711 34.243L16.9801 33.4337C17.2983 33.6221 17.6413 33.7651 17.9992 33.8584V35.0004C17.9992 35.5527 18.4468 36.0003 18.9991 36.0003C19.5514 36.0003 19.9991 35.5527 19.9991 35.0004V33.8584C20.357 33.7651 20.7 33.6221 21.018 33.4337L21.827 34.243C22.2175 34.6335 22.8505 34.6335 23.2411 34.243C23.6316 33.8525 23.6316 33.2194 23.2411 32.8289L22.4321 32.0196C22.6207 31.7015 22.7637 31.3584 22.8569 31.0004H23.999C24.5513 31.0004 24.9989 30.5527 24.9989 30.0004C24.9989 29.4481 24.5513 29.0005 23.999 29.0005ZM18.999 32.0004C17.8944 32.0004 16.999 31.105 16.999 30.0004C16.999 28.8958 17.8944 28.0004 18.999 28.0004C20.1036 28.0004 20.999 28.8958 20.999 30.0004C20.9977 31.1044 20.103 31.9991 18.999 32.0004Z" fill="white"/>
<path d="M13.7643 19.0007C13.826 19.2013 13.9065 19.3957 14.0047 19.5812L13.4638 20.1222C13.2113 20.3749 13.1126 20.743 13.2051 21.0881C13.2976 21.4331 13.5671 21.7026 13.9121 21.7951C14.2571 21.8875 14.6253 21.7889 14.8779 21.5363L15.4203 20.9938C15.6053 21.0915 15.799 21.1718 15.9989 21.2335V22.0007C15.9989 22.553 16.4466 23.0007 16.9989 23.0007C17.5512 23.0007 17.9988 22.553 17.9988 22.0007V21.2335C18.1987 21.1719 18.3924 21.0916 18.5775 20.9938L19.1199 21.5364C19.5104 21.9269 20.1436 21.9269 20.534 21.5364C20.9245 21.146 20.9245 20.5128 20.534 20.1224L19.9931 19.5812C20.0914 19.3957 20.1719 19.2014 20.2336 19.0008H20.9988C21.5511 19.0008 21.9987 18.553 21.9987 18.0008C21.9987 17.4485 21.5511 17.0009 20.9988 17.0009H20.2336C20.1719 16.8003 20.0914 16.606 19.9931 16.4205L20.534 15.8793C20.7867 15.6266 20.8852 15.2586 20.7928 14.9135C20.7003 14.5685 20.4308 14.2989 20.0858 14.2065C19.7408 14.114 19.3726 14.2127 19.1199 14.4652L18.5775 15.0079C18.3924 14.9102 18.1987 14.83 17.9988 14.7684V14.0009C17.9988 13.4486 17.5512 13.001 16.9989 13.001C16.4466 13.001 15.9989 13.4486 15.9989 14.0009V14.7685C15.799 14.8301 15.6053 14.9103 15.4203 15.008L14.8778 14.4652C14.4873 14.0748 13.8543 14.0748 13.4637 14.4652C13.0733 14.8557 13.0733 15.4887 13.4637 15.8793L14.0047 16.4205C13.9063 16.606 13.8258 16.8003 13.7642 17.0009H12.999C12.4467 17.0009 11.999 17.4487 11.999 18.0008C11.999 18.5531 12.4468 19.0008 12.999 19.0008H13.7643V19.0007ZM16.6363 16.6476C17.2485 16.4834 17.8948 16.7509 18.2117 17.2998C18.5287 17.8487 18.4376 18.5421 17.9893 18.9903C17.589 19.391 16.9866 19.511 16.4632 19.2943C15.9399 19.0777 15.5986 18.567 15.5986 18.0006C15.5985 17.3667 16.0241 16.8117 16.6363 16.6476Z" fill="white"/>
<path d="M37.4987 13.0009C33.909 13.0009 30.9988 15.9109 30.9988 19.5008C31.0029 23.0889 33.9106 25.9965 37.4987 26.0008C41.0885 26.0008 43.9987 23.0907 43.9987 19.5008C43.9987 15.9109 41.0885 13.0009 37.4987 13.0009ZM37.4987 24.0006C35.0134 24.0006 32.9988 21.986 32.9988 19.5007C33.0015 17.0166 35.0146 15.0034 37.4987 15.0007C39.984 15.0007 41.9987 17.0154 41.9987 19.5007C41.9987 21.986 39.984 24.0006 37.4987 24.0006Z" fill="white"/>
</svg>
