<svg width="60" height="60" viewBox="0 0 60 60" fill="none" xmlns="http://www.w3.org/2000/svg">
<path d="M55.3125 2.8125H4.6875C3.94185 2.81337 3.22698 3.10996 2.69972 3.63722C2.17246 4.16448 1.87587 4.87935 1.875 5.625V54.375C1.87587 55.1207 2.17246 55.8355 2.69972 56.3628C3.22698 56.89 3.94185 57.1866 4.6875 57.1875H55.3125C56.0582 57.1866 56.773 56.89 57.3003 56.3628C57.8275 55.8355 58.1241 55.1207 58.125 54.375V5.625C58.1241 4.87935 57.8275 4.16448 57.3003 3.63722C56.773 3.10996 56.0582 2.81337 55.3125 2.8125ZM4.6875 4.6875H55.3125C55.5611 4.68778 55.7994 4.78664 55.9751 4.9624C56.1509 5.13815 56.2497 5.37645 56.25 5.625V10.3125H3.75V5.625C3.75028 5.37645 3.84914 5.13815 4.0249 4.9624C4.20065 4.78664 4.43895 4.68778 4.6875 4.6875ZM55.3125 55.3125H4.6875C4.43895 55.3122 4.20065 55.2134 4.0249 55.0376C3.84914 54.8619 3.75028 54.6236 3.75 54.375V12.1875H56.25V54.375C56.2497 54.6236 56.1509 54.8619 55.9751 55.0376C55.7994 55.2134 55.5611 55.3122 55.3125 55.3125Z" fill="white"/>
<path d="M14.0625 8.4375C14.5803 8.4375 15 8.01777 15 7.5C15 6.98223 14.5803 6.5625 14.0625 6.5625C13.5447 6.5625 13.125 6.98223 13.125 7.5C13.125 8.01777 13.5447 8.4375 14.0625 8.4375Z" fill="white"/>
<path d="M10.3125 8.4375C10.8303 8.4375 11.25 8.01777 11.25 7.5C11.25 6.98223 10.8303 6.5625 10.3125 6.5625C9.79473 6.5625 9.375 6.98223 9.375 7.5C9.375 8.01777 9.79473 8.4375 10.3125 8.4375Z" fill="white"/>
<path d="M6.5625 8.4375C7.08027 8.4375 7.5 8.01777 7.5 7.5C7.5 6.98223 7.08027 6.5625 6.5625 6.5625C6.04473 6.5625 5.625 6.98223 5.625 7.5C5.625 8.01777 6.04473 8.4375 6.5625 8.4375Z" fill="white"/>
<path d="M51.5625 15.9375H8.4375C8.18886 15.9375 7.9504 16.0363 7.77459 16.2121C7.59877 16.3879 7.5 16.6264 7.5 16.875V39.375C7.5 39.6236 7.59877 39.8621 7.77459 40.0379C7.9504 40.2137 8.18886 40.3125 8.4375 40.3125H51.5625C51.8111 40.3125 52.0496 40.2137 52.2254 40.0379C52.4012 39.8621 52.5 39.6236 52.5 39.375V16.875C52.5 16.6264 52.4012 16.3879 52.2254 16.2121C52.0496 16.0363 51.8111 15.9375 51.5625 15.9375ZM36.5951 37.8558L39.375 35.0757L42.7366 38.4375H37.0312L36.5951 37.8558ZM30.9375 33.4375L34.6875 38.4375H27.1875L30.9375 33.4375ZM24.8438 38.4375H16.8006L21.5625 31.6348L25.6096 37.4164L24.8438 38.4375ZM50.625 38.4375H45.3884L40.0379 33.0871C39.9509 33 39.8475 32.931 39.7338 32.8838C39.62 32.8367 39.4981 32.8125 39.375 32.8125C39.2519 32.8125 39.13 32.8367 39.0162 32.8838C38.9025 32.931 38.7991 33 38.7121 33.0871L35.4586 36.3405L31.6875 31.3125C31.6002 31.1961 31.4869 31.1016 31.3568 31.0365C31.2266 30.9714 31.083 30.9375 30.9375 30.9375C30.792 30.9375 30.6484 30.9714 30.5182 31.0365C30.3881 31.1016 30.2748 31.1961 30.1875 31.3125L26.7934 35.8379L22.3305 29.4629C22.2441 29.3394 22.1292 29.2386 21.9955 29.169C21.8618 29.0994 21.7132 29.063 21.5625 29.063C21.4118 29.063 21.2632 29.0994 21.1295 29.169C20.9958 29.2386 20.8809 29.3394 20.7945 29.4629L14.5119 38.4375H9.375V17.8125H50.625V38.4375Z" fill="white"/>
<path d="M24.375 21.5625H35.625C35.8736 21.5625 36.1121 21.4637 36.2879 21.2879C36.4637 21.1121 36.5625 20.8736 36.5625 20.625C36.5625 20.3764 36.4637 20.1379 36.2879 19.9621C36.1121 19.7863 35.8736 19.6875 35.625 19.6875H24.375C24.1264 19.6875 23.8879 19.7863 23.7121 19.9621C23.5363 20.1379 23.4375 20.3764 23.4375 20.625C23.4375 20.8736 23.5363 21.1121 23.7121 21.2879C23.8879 21.4637 24.1264 21.5625 24.375 21.5625Z" fill="white"/>
<path d="M31.875 23.4375H28.125C27.3791 23.4375 26.6637 23.7338 26.1363 24.2613C25.6088 24.7887 25.3125 25.5041 25.3125 26.25C25.3125 26.9959 25.6088 27.7113 26.1363 28.2387C26.6637 28.7662 27.3791 29.0625 28.125 29.0625H31.875C32.6209 29.0625 33.3363 28.7662 33.8637 28.2387C34.3912 27.7113 34.6875 26.9959 34.6875 26.25C34.6875 25.5041 34.3912 24.7887 33.8637 24.2613C33.3363 23.7338 32.6209 23.4375 31.875 23.4375ZM31.875 27.1875H28.125C27.8764 27.1875 27.6379 27.0887 27.4621 26.9129C27.2863 26.7371 27.1875 26.4986 27.1875 26.25C27.1875 26.0014 27.2863 25.7629 27.4621 25.5871C27.6379 25.4113 27.8764 25.3125 28.125 25.3125H31.875C32.1236 25.3125 32.3621 25.4113 32.5379 25.5871C32.7137 25.7629 32.8125 26.0014 32.8125 26.25C32.8125 26.4986 32.7137 26.7371 32.5379 26.9129C32.3621 27.0887 32.1236 27.1875 31.875 27.1875Z" fill="white"/>
<path d="M35.625 31.875C36.1428 31.875 36.5625 31.4553 36.5625 30.9375C36.5625 30.4197 36.1428 30 35.625 30C35.1072 30 34.6875 30.4197 34.6875 30.9375C34.6875 31.4553 35.1072 31.875 35.625 31.875Z" fill="white"/>
<path d="M15.9375 44.0625C16.1861 44.0625 16.4246 43.9637 16.6004 43.7879C16.7762 43.6121 16.875 43.3736 16.875 43.125C16.875 42.8764 16.7762 42.6379 16.6004 42.4621C16.4246 42.2863 16.1861 42.1875 15.9375 42.1875H12.1875C11.9389 42.1875 11.7004 42.2863 11.5246 42.4621C11.3488 42.6379 11.25 42.8764 11.25 43.125C11.25 43.3736 11.3488 43.6121 11.5246 43.7879C11.7004 43.9637 11.9389 44.0625 12.1875 44.0625H15.9375Z" fill="white"/>
<path d="M27.1875 42.1875H19.6875C19.4389 42.1875 19.2004 42.2863 19.0246 42.4621C18.8488 42.6379 18.75 42.8764 18.75 43.125C18.75 43.3736 18.8488 43.6121 19.0246 43.7879C19.2004 43.9637 19.4389 44.0625 19.6875 44.0625H27.1875C27.4361 44.0625 27.6746 43.9637 27.8504 43.7879C28.0262 43.6121 28.125 43.3736 28.125 43.125C28.125 42.8764 28.0262 42.6379 27.8504 42.4621C27.6746 42.2863 27.4361 42.1875 27.1875 42.1875Z" fill="white"/>
<path d="M7.5 46.875C7.5 47.1236 7.59877 47.3621 7.77459 47.5379C7.9504 47.7137 8.18886 47.8125 8.4375 47.8125H17.8125C18.0611 47.8125 18.2996 47.7137 18.4754 47.5379C18.6512 47.3621 18.75 47.1236 18.75 46.875C18.75 46.6264 18.6512 46.3879 18.4754 46.2121C18.2996 46.0363 18.0611 45.9375 17.8125 45.9375H8.4375C8.18886 45.9375 7.9504 46.0363 7.77459 46.2121C7.59877 46.3879 7.5 46.6264 7.5 46.875Z" fill="white"/>
<path d="M10.3125 49.6875H8.4375C8.18886 49.6875 7.9504 49.7863 7.77459 49.9621C7.59877 50.1379 7.5 50.3764 7.5 50.625C7.5 50.8736 7.59877 51.1121 7.77459 51.2879C7.9504 51.4637 8.18886 51.5625 8.4375 51.5625H10.3125C10.5611 51.5625 10.7996 51.4637 10.9754 51.2879C11.1512 51.1121 11.25 50.8736 11.25 50.625C11.25 50.3764 11.1512 50.1379 10.9754 49.9621C10.7996 49.7863 10.5611 49.6875 10.3125 49.6875Z" fill="white"/>
<path d="M27.1875 49.6875H14.0625C13.8139 49.6875 13.5754 49.7863 13.3996 49.9621C13.2238 50.1379 13.125 50.3764 13.125 50.625C13.125 50.8736 13.2238 51.1121 13.3996 51.2879C13.5754 51.4637 13.8139 51.5625 14.0625 51.5625H27.1875C27.4361 51.5625 27.6746 51.4637 27.8504 51.2879C28.0262 51.1121 28.125 50.8736 28.125 50.625C28.125 50.3764 28.0262 50.1379 27.8504 49.9621C27.6746 49.7863 27.4361 49.6875 27.1875 49.6875Z" fill="white"/>
<path d="M34.6875 44.0625H40.3125C40.5611 44.0625 40.7996 43.9637 40.9754 43.7879C41.1512 43.6121 41.25 43.3736 41.25 43.125C41.25 42.8764 41.1512 42.6379 40.9754 42.4621C40.7996 42.2863 40.5611 42.1875 40.3125 42.1875H34.6875C34.4389 42.1875 34.2004 42.2863 34.0246 42.4621C33.8488 42.6379 33.75 42.8764 33.75 43.125C33.75 43.3736 33.8488 43.6121 34.0246 43.7879C34.2004 43.9637 34.4389 44.0625 34.6875 44.0625Z" fill="white"/>
<path d="M51.5625 42.1875H44.0625C43.8139 42.1875 43.5754 42.2863 43.3996 42.4621C43.2238 42.6379 43.125 42.8764 43.125 43.125C43.125 43.3736 43.2238 43.6121 43.3996 43.7879C43.5754 43.9637 43.8139 44.0625 44.0625 44.0625H51.5625C51.8111 44.0625 52.0496 43.9637 52.2254 43.7879C52.4012 43.6121 52.5 43.3736 52.5 43.125C52.5 42.8764 52.4012 42.6379 52.2254 42.4621C52.0496 42.2863 51.8111 42.1875 51.5625 42.1875Z" fill="white"/>
<path d="M34.6875 47.8125H42.1875C42.4361 47.8125 42.6746 47.7137 42.8504 47.5379C43.0262 47.3621 43.125 47.1236 43.125 46.875C43.125 46.6264 43.0262 46.3879 42.8504 46.2121C42.6746 46.0363 42.4361 45.9375 42.1875 45.9375H34.6875C34.4389 45.9375 34.2004 46.0363 34.0246 46.2121C33.8488 46.3879 33.75 46.6264 33.75 46.875C33.75 47.1236 33.8488 47.3621 34.0246 47.5379C34.2004 47.7137 34.4389 47.8125 34.6875 47.8125Z" fill="white"/>
<path d="M36.5625 49.6875H34.6875C34.4389 49.6875 34.2004 49.7863 34.0246 49.9621C33.8488 50.1379 33.75 50.3764 33.75 50.625C33.75 50.8736 33.8488 51.1121 34.0246 51.2879C34.2004 51.4637 34.4389 51.5625 34.6875 51.5625H36.5625C36.8111 51.5625 37.0496 51.4637 37.2254 51.2879C37.4012 51.1121 37.5 50.8736 37.5 50.625C37.5 50.3764 37.4012 50.1379 37.2254 49.9621C37.0496 49.7863 36.8111 49.6875 36.5625 49.6875Z" fill="white"/>
<path d="M47.8125 49.6875H40.3125C40.0639 49.6875 39.8254 49.7863 39.6496 49.9621C39.4738 50.1379 39.375 50.3764 39.375 50.625C39.375 50.8736 39.4738 51.1121 39.6496 51.2879C39.8254 51.4637 40.0639 51.5625 40.3125 51.5625H47.8125C48.0611 51.5625 48.2996 51.4637 48.4754 51.2879C48.6512 51.1121 48.75 50.8736 48.75 50.625C48.75 50.3764 48.6512 50.1379 48.4754 49.9621C48.2996 49.7863 48.0611 49.6875 47.8125 49.6875Z" fill="white"/>
<path d="M27.1875 45.9375H21.5625C21.3139 45.9375 21.0754 46.0363 20.8996 46.2121C20.7238 46.3879 20.625 46.6264 20.625 46.875C20.625 47.1236 20.7238 47.3621 20.8996 47.5379C21.0754 47.7137 21.3139 47.8125 21.5625 47.8125H27.1875C27.4361 47.8125 27.6746 47.7137 27.8504 47.5379C28.0262 47.3621 28.125 47.1236 28.125 46.875C28.125 46.6264 28.0262 46.3879 27.8504 46.2121C27.6746 46.0363 27.4361 45.9375 27.1875 45.9375Z" fill="white"/>
<path d="M51.5625 45.9375H45.9375C45.6889 45.9375 45.4504 46.0363 45.2746 46.2121C45.0988 46.3879 45 46.6264 45 46.875C45 47.1236 45.0988 47.3621 45.2746 47.5379C45.4504 47.7137 45.6889 47.8125 45.9375 47.8125H51.5625C51.8111 47.8125 52.0496 47.7137 52.2254 47.5379C52.4012 47.3621 52.5 47.1236 52.5 46.875C52.5 46.6264 52.4012 46.3879 52.2254 46.2121C52.0496 46.0363 51.8111 45.9375 51.5625 45.9375Z" fill="white"/>
<path d="M30.9375 42.1875C30.6889 42.1875 30.4504 42.2863 30.2746 42.4621C30.0988 42.6379 30 42.8764 30 43.125V50.625C30 50.8736 30.0988 51.1121 30.2746 51.2879C30.4504 51.4637 30.6889 51.5625 30.9375 51.5625C31.1861 51.5625 31.4246 51.4637 31.6004 51.2879C31.7762 51.1121 31.875 50.8736 31.875 50.625V43.125C31.875 42.8764 31.7762 42.6379 31.6004 42.4621C31.4246 42.2863 31.1861 42.1875 30.9375 42.1875Z" fill="white"/>
</svg>
