<svg width="491" height="375" viewBox="0 0 491 375" fill="none" xmlns="http://www.w3.org/2000/svg">
<path d="M111.486 291.904H355.949V118.249C355.949 113.49 352.116 109.631 347.389 109.631H120.056C115.328 109.631 111.495 113.49 111.495 118.249V291.904H111.486Z" fill="url(#paint0_linear)"/>
<path d="M120.128 258.771H346.873V118.549H120.128V258.771Z" fill="url(#paint1_linear)"/>
<path d="M96.3081 119.204H38.6342L38.7337 118.686C39.6557 113.899 43.8502 110.432 48.7046 110.432C49.4006 110.432 50.1057 110.505 50.7837 110.65C53.7849 104.899 59.6246 101.341 66.0971 101.341C71.6114 101.341 76.8183 104.007 80.0727 108.485C81.2569 108.121 82.4953 107.939 83.7519 107.939C90.0255 107.939 95.2776 112.461 96.2358 118.695L96.3081 119.204ZM39.7009 118.331H95.2957C94.2109 112.871 89.3385 108.803 83.7519 108.803C82.4863 108.803 81.2388 109.003 80.0455 109.404L79.7382 109.504L79.5574 109.24C76.4748 104.836 71.4397 102.206 66.0971 102.206C59.8416 102.206 54.2098 105.7 51.3984 111.333L51.2447 111.642L50.9103 111.56C50.1961 111.378 49.4458 111.287 48.7046 111.287C44.4468 111.297 40.7405 114.227 39.7009 118.331Z" fill="#6AAFE8"/>
<path d="M308.129 47.7332L307.93 47.6331C287.464 37.1135 290.212 16.7386 290.239 16.5384L290.293 16.1653H290.664C303.681 16.1653 307.767 11.9429 307.803 11.8974L308.12 11.5607L308.436 11.8974C308.472 11.9338 312.567 16.1562 325.575 16.1562H325.946L326 16.5293C326.027 16.7295 328.776 37.1044 308.309 47.624L308.129 47.7332ZM291.062 17.0298C290.799 19.7871 289.941 37.2773 308.129 46.7595C326.326 37.2773 325.458 19.7962 325.205 17.0298C313.905 16.957 309.304 13.7902 308.129 12.7892C306.953 13.7902 302.352 16.9661 291.062 17.0298Z" fill="#6AAFE8"/>
<path d="M420.123 318.485C417.04 304.317 423.703 300.777 430.139 297.355C435.4 294.562 440.372 291.923 440.101 283.569C439.748 272.494 447.242 268.472 453.85 264.914C458.768 262.266 463.414 259.772 464.11 254.731C465.774 242.61 476.884 227.54 477.001 227.394L477.688 227.913C477.58 228.059 466.605 242.955 464.96 254.858C464.21 260.336 459.374 262.93 454.257 265.687C447.559 269.291 440.625 273.013 440.96 283.55C441.24 292.441 435.798 295.335 430.537 298.129C424.1 301.55 418.026 304.781 420.964 318.303L420.123 318.485Z" fill="url(#paint2_linear)"/>
<path d="M423.504 314.873C423.359 314.873 423.206 314.864 423.061 314.855C420.277 314.645 417.547 312.516 414.473 308.157L414.283 307.884L414.5 307.629C414.545 307.565 419.481 301.523 417.673 290.166C417.248 287.518 416.688 285.489 416.236 283.86C415.576 281.485 415.133 279.911 415.865 278.664C416.796 277.071 419.309 276.243 426.388 274.542C433.927 272.731 436.449 264.186 438.664 256.642C440.761 249.535 442.74 242.837 448.607 243.046C453.995 243.256 462.185 234.756 469.399 227.258C476.097 220.306 482.425 213.754 486.466 213.881C487.433 213.917 488.256 214.327 488.898 215.1C492.505 219.423 489.142 225.975 485.887 232.318C483.112 237.723 480.491 242.837 482.181 246.204C484.305 250.436 484.595 254.267 483.04 257.279C481.196 260.846 476.902 263.148 470.267 264.113C464.201 264.996 463.541 271.657 462.854 278.709C462.04 286.936 461.127 296.263 450.949 297.155C443.391 297.81 438.293 303.152 433.8 307.866C430.211 311.615 427.102 314.873 423.504 314.873ZM415.368 307.92C418.17 311.824 420.71 313.817 423.133 313.999C426.514 314.254 429.597 311.014 433.167 307.274C437.769 302.451 442.985 296.982 450.867 296.3C460.332 295.472 461.173 286.918 461.995 278.637C462.727 271.238 463.414 264.25 470.149 263.267C476.495 262.338 480.581 260.2 482.29 256.897C483.718 254.139 483.42 250.581 481.422 246.614C479.532 242.846 482.253 237.55 485.137 231.935C488.265 225.847 491.492 219.55 488.256 215.674C487.768 215.091 487.18 214.791 486.448 214.764C482.796 214.645 476.595 221.061 470.032 227.877C462.42 235.776 454.565 243.929 448.806 243.929C448.734 243.929 448.662 243.929 448.589 243.929C443.391 243.738 441.583 249.835 439.504 256.906C437.217 264.677 434.623 273.477 426.595 275.397C420.195 276.935 417.393 277.79 416.615 279.11C416.064 280.047 416.444 281.394 417.067 283.632C417.529 285.28 418.098 287.336 418.532 290.03C420.195 300.577 416.335 306.601 415.368 307.92Z" fill="url(#paint3_linear)"/>
<path d="M423.82 311.906C423.721 311.906 423.621 311.906 423.522 311.888C418.957 311.469 415.44 301.396 412.05 291.659C410.441 287.036 408.922 282.677 407.44 279.874C406.292 277.699 404.827 275.433 403.417 273.249C399.657 267.416 395.77 261.383 397.035 256.087C397.704 253.302 399.684 250.982 403.101 248.998C410.586 244.657 409.429 242.209 406.907 236.831C405.053 232.891 402.522 227.495 402.423 218.995C402.378 215.346 402.296 212.188 402.224 209.404C401.989 200.449 401.862 195.954 403.77 194.325C404.556 193.652 405.659 193.479 407.232 193.779C409.926 194.298 411.092 196.482 412.321 198.802C413.894 201.76 415.675 205.109 421.063 206.246C426.116 207.311 430.971 208.758 432.308 212.143C433.249 214.518 432.363 217.639 429.578 221.698C428.9 222.681 428.674 223.518 428.873 224.255C429.316 225.884 431.829 227.067 434.74 228.441C438.889 230.388 444.042 232.809 445.507 237.832C446.682 241.882 445.317 246.923 441.339 253.257C431.92 268.244 432.299 278.409 432.634 287.373C432.878 294.016 433.113 300.295 429.135 307.302C427.382 310.396 425.637 311.906 423.82 311.906ZM405.876 194.516C405.207 194.516 404.701 194.671 404.321 194.998C402.739 196.354 402.857 200.986 403.083 209.386C403.155 212.17 403.236 215.337 403.282 218.995C403.381 227.303 405.867 232.6 407.684 236.476C410.188 241.809 411.698 245.021 403.526 249.762C400.326 251.619 398.472 253.757 397.867 256.296C396.692 261.228 400.479 267.098 404.14 272.785C405.56 274.987 407.033 277.272 408.199 279.474C409.709 282.331 411.246 286.726 412.864 291.377C416.019 300.413 419.589 310.659 423.603 311.023C425.14 311.16 426.749 309.768 428.394 306.865C432.254 300.067 432.037 294.198 431.784 287.391C431.45 278.3 431.061 267.99 440.625 252.783C444.467 246.668 445.796 241.854 444.693 238.069C443.337 233.428 438.582 231.189 434.388 229.224C431.278 227.768 428.593 226.503 428.051 224.482C427.779 223.481 428.051 222.417 428.882 221.206C431.486 217.412 432.345 214.554 431.522 212.47C430.329 209.467 425.483 208.075 420.9 207.101C415.124 205.882 413.162 202.187 411.58 199.221C410.396 197 409.374 195.08 407.087 194.644C406.617 194.562 406.22 194.516 405.876 194.516Z" fill="url(#paint4_linear)"/>
<path d="M423.911 317.284L423.088 317.02C427.689 302.378 419.363 269.509 416.887 261.519C415.666 257.588 416.796 251.664 417.881 245.94C419.291 238.542 420.747 230.898 417.031 228.031C410.062 222.644 410.423 210.195 410.441 209.667L411.3 209.704C411.3 209.831 410.929 222.235 417.556 227.349C421.696 230.543 420.186 238.451 418.722 246.104C417.655 251.728 416.543 257.533 417.7 261.255C420.774 271.147 428.503 302.669 423.911 317.284Z" fill="url(#paint5_linear)"/>
<path d="M389.098 222.144C387.182 217.248 379.697 217.994 380.384 224.91C381.071 231.835 385.889 239.224 378.549 250.991C371.208 262.766 387.95 265.068 393.907 272.458C399.865 279.847 401.935 290.002 406.979 296.463C412.023 302.924 415.458 318.394 419.589 312.616C423.721 306.847 419.833 299.339 420.295 288.956C420.756 278.573 429.94 271.994 420.756 265.296C411.571 258.598 402.332 256.551 405.37 241.454C406.699 234.811 395.055 237.377 389.098 222.144Z" fill="url(#paint6_linear)"/>
<path d="M426.27 313.963C426.216 313.653 421.117 283.232 409.7 274.896C398.057 266.397 395.941 258.544 391.874 240.016L392.714 239.834C396.728 258.125 398.816 265.878 410.197 274.196C421.904 282.741 426.903 312.561 427.111 313.826L426.27 313.963Z" fill="white"/>
<path d="M415.973 312.871C415.973 312.871 419.363 304.426 413.189 292.423C407.015 280.42 402.016 282.267 416.905 273.031C431.784 263.794 416.995 234.711 429.669 231.016C442.334 227.322 453.344 180.247 462.971 186.235C472.608 192.232 459.762 215.319 466.642 222.235C473.521 229.16 474.443 237.969 460.223 245.112C446.004 252.246 470.312 279.492 451.048 287.8C431.784 296.118 437.307 328.705 415.973 312.871Z" fill="url(#paint7_linear)"/>
<path d="M421.859 321.825C421.84 321.716 419.761 310.905 426.306 296.937C432.977 282.704 436.169 267.143 434.84 255.313C434.126 248.907 438.203 246.404 442.144 243.975C446.022 241.59 450.036 239.124 449.819 232.809C449.62 227.103 452.015 213.735 452.115 213.171L452.964 213.326C452.937 213.462 450.479 227.167 450.677 232.772C450.912 239.588 446.682 242.191 442.587 244.712C438.7 247.096 435.039 249.353 435.689 255.213C437.027 267.198 433.809 282.932 427.075 297.301C420.656 310.996 422.663 321.543 422.69 321.652L421.859 321.825Z" fill="white"/>
<path d="M437.425 262.166C441.755 258.125 447.468 257.543 446.275 263.54C445.082 269.537 440.996 271.256 443.039 275.024C445.082 278.791 448.49 282.568 442.695 287.2C436.901 291.832 433.674 292.341 431.965 301.086C430.266 309.831 430.6 315.801 423.106 316.174C415.612 316.547 418.505 305.545 420.891 300.577C420.891 300.577 424.471 294.907 422.085 287.454C419.698 280.002 415.106 275.979 424.806 273.45C434.523 270.911 434.505 264.886 437.425 262.166Z" fill="white"/>
<path d="M423.657 321.752C423.63 320.679 423.115 295.499 427.798 291.258C432.58 286.927 433.493 279.274 433.619 275.106C433.782 269.664 440.761 266.433 441.059 266.306L441.411 267.098C441.339 267.125 434.623 270.237 434.478 275.133C434.324 280.402 433.14 287.591 428.376 291.904C423.992 295.881 424.516 321.479 424.525 321.734L423.657 321.752Z" fill="url(#paint8_linear)"/>
<path d="M441.231 311.469L433.474 341.117H416.127L408.362 311.469H441.231Z" fill="url(#paint9_linear)"/>
<path d="M441.231 311.469C441.231 311.469 424.145 314.7 424.145 341.117H416.127L408.362 311.469H441.231Z" fill="url(#paint10_linear)"/>
<path d="M135.441 234.01H112.598V236.613H135.441V234.01Z" fill="#1487E3"/>
<path d="M107.825 162.166H71.3673V115.219H72.2261V161.292H107.825V162.166Z" fill="#78C2FF"/>
<path d="M262.161 131.235H261.294V82.8319H307.695V42.1276H308.563V83.6964H262.161V131.235Z" fill="#78C2FF"/>
<path d="M412.059 185.152H363.778V184.279H411.2V156.059H412.059V185.152Z" fill="#78C2FF"/>
<path d="M51.1181 224.364C51.1181 224.364 50.0876 238.97 52.917 240.717C54.6888 241.809 61.767 245.503 61.5591 246.195C61.3512 246.887 57.5635 252.356 57.5635 252.356C57.5635 252.356 43.9676 243.338 43.5247 240.498C43.0998 237.723 44.1936 219.113 46.0649 218.258C47.4661 217.612 48.2073 218.149 49.9701 219.468C52.447 221.325 51.1181 224.364 51.1181 224.364Z" fill="#FF7E55"/>
<path d="M49.5362 330.634C49.5362 330.634 49.1114 333.591 49.0571 334.028C49.0029 334.474 44.3564 333.764 44.3564 333.764L43.9767 330.243C43.9767 330.252 48.9486 330.215 49.5362 330.634Z" fill="#424773"/>
<path d="M49.1113 333.655C49.1113 333.655 50.5848 335.439 52.0131 336.212C53.4414 336.986 55.6742 337.295 56.524 338.096C57.1296 338.678 58.7387 341.172 52.8176 341.117C46.8966 341.063 44.04 341.472 43.4072 340.517C42.7744 339.561 44.3202 333.455 44.3202 333.455C44.3202 333.455 45.7214 333.965 49.1113 333.655Z" fill="#292C47"/>
<path d="M72.8137 330.634C72.8137 330.634 72.3888 333.591 72.3346 334.028C72.2803 334.474 67.6339 333.764 67.6339 333.764L67.2542 330.243C67.2542 330.252 72.2261 330.215 72.8137 330.634Z" fill="#424773"/>
<path d="M72.3888 333.655C72.3888 333.655 73.8623 335.439 75.2905 336.212C76.7188 336.986 81.9619 337.623 82.8026 338.433C83.4083 339.015 84.4207 341.345 76.0951 341.126C70.174 340.972 67.3174 341.481 66.6846 340.526C66.0519 339.57 67.6067 333.464 67.6067 333.464C67.6067 333.464 68.9175 334.001 72.3888 333.655Z" fill="#292C47"/>
<path d="M51.1996 254.713C51.1996 254.713 46.8333 261.701 47.1588 268.017C47.4842 274.332 46.77 281.084 46.1101 287.682C45.3779 295.044 43.3892 310.35 43.2807 314.29C43.1722 318.231 43.4253 333.036 43.4253 333.036L51.0097 332.982C51.0097 332.982 53.7036 303.061 55.0053 299.958C56.307 296.846 61.6586 274.369 61.8755 271.884C62.0835 269.4 51.1996 254.713 51.1996 254.713Z" fill="#292C47"/>
<path d="M74.2058 255.659C74.2058 255.659 75.9324 272.84 76.3663 276.707C76.8002 280.575 76.5019 297.328 76.7188 299.749C76.9358 302.169 75.2634 327.731 74.8566 332.6L66.5219 332.545C66.5219 332.545 65.9434 311.87 65.9434 301.823C65.9434 291.777 63.3851 280.083 60.4472 273.45C57.5093 266.816 50.7927 266.661 48.9938 254.367C49.0028 254.358 71.765 251.764 74.2058 255.659Z" fill="#292C47"/>
<path d="M55.8189 195.781C55.8189 195.781 61.0258 192.277 64.6779 196.027C68.3299 199.776 70.1289 208.594 67.5073 210.359C64.8767 212.115 60.4292 212.58 58.3138 210.195C56.1985 207.811 53.9386 204.162 53.3872 201.505C52.8357 198.848 54.499 196.9 55.8189 195.781Z" fill="#EEA886"/>
<path d="M65.7356 210.96C65.7356 210.96 65.6632 214.645 66.07 215.428C66.4768 216.21 58.4676 216.238 58.4676 216.238C58.4676 216.238 57.8167 211.97 56.5873 208.357C55.3579 204.745 65.7356 210.96 65.7356 210.96Z" fill="#EEA886"/>
<path d="M56.7952 208.294C56.7952 208.294 57.5455 209.058 59.6518 208.193C61.7671 207.329 63.7559 203.753 64.5966 203.216C65.4373 202.679 65.3198 202.133 65.3198 202.133L66.0881 202.843L67.0735 202.67C67.0735 202.67 65.5729 200.249 66.6576 198.866C67.7424 197.474 63.2768 190.685 56.8133 194.835C56.8133 194.835 51.7601 197.619 52.6821 200.668C53.6132 203.698 55.2223 207.038 56.7952 208.294Z" fill="#754836"/>
<path d="M66.5491 215.328C66.5491 215.328 66.522 213.826 65.844 213.681C65.166 213.535 58.3862 212.88 57.5545 213.208V214.955C57.5635 214.964 59.1636 215.956 66.5491 215.328Z" fill="#E2D2CA"/>
<path d="M64.9129 201.032C64.6688 200.54 63.0055 199.366 62.8789 201.077C62.7524 202.788 64.5061 204.626 65.1751 204.271C65.8259 203.926 65.5276 202.278 64.9129 201.032Z" fill="#EEA886"/>
<path d="M54.3093 196.682C54.3093 196.682 46.8605 198.693 56.4879 208.002L54.3093 196.682Z" fill="#754836"/>
<path d="M120.851 236.54L113.267 236.467C113.918 236.085 114.984 235.393 114.749 235.075C114.415 234.629 112.263 235.612 111.396 235.703C110.591 235.785 109.253 235.684 108.232 236.057L105.836 237.086L108.033 239.133C108.033 239.133 112.001 239.707 113.167 239.789C115.057 239.925 120.833 237.659 120.933 237.313C121.086 236.695 120.851 236.54 120.851 236.54Z" fill="#EEA886"/>
<path d="M76.4567 217.412C71.6295 216.556 66.5491 215.328 66.5491 215.328L57.5636 214.955C57.5636 214.955 49.3102 216.784 46.0649 218.258C45.7576 218.395 45.7576 225.666 44.9078 227.577L47.6017 233.3C47.6017 233.3 49.1565 244.63 49.482 249.671C49.6266 251.983 46.2728 271.366 46.2728 271.366C46.2728 271.366 49.8707 272.43 56.0087 273.113C62.1467 273.795 77.4692 272.867 77.5686 272.139C77.6681 271.411 74.6036 244.985 74.468 243.611C74.2601 241.509 75.0737 231.808 75.0737 231.808C76.2307 233.373 82.9112 239.234 86.1745 241.099C88.4978 242.428 94.1838 241.618 95.8652 241.445C99.4902 241.072 109.515 240.353 109.714 239.989C109.868 239.771 109.136 236.094 108.72 235.958C108.349 235.83 95.4132 235.193 92.1679 235.357C90.8481 235.43 86.5542 230.598 86.5542 230.598C86.5542 230.598 79.1235 218.613 76.4567 217.412Z" fill="#FF7E55"/>
<path d="M21.1783 180.839H44.9349V198.165V201.823L41.31 198.165H21.1783V180.839Z" fill="#FFCB55"/>
<path d="M403.77 125.665H380.682V102.424H403.77V125.665ZM381.459 124.892H403.001V103.207H381.459V124.892Z" fill="#6AAFE8"/>
<path d="M461.227 110.951H408.389V105.272H461.227V110.951ZM409.158 110.177H460.449V106.046H409.158V110.177Z" fill="#6AAFE8"/>
<path d="M461.227 137.368H380.691V131.69H461.227V137.368ZM381.46 136.595H460.449V132.463H381.46V136.595Z" fill="#6AAFE8"/>
<path d="M431.983 148.27H380.691V142.592H431.983V148.27ZM381.46 147.496H431.215V143.365H381.46V147.496Z" fill="#6AAFE8"/>
<path d="M444.169 121.789H408.389V116.111H444.169V121.789ZM409.158 121.015H443.4V116.884H409.158V121.015Z" fill="#6AAFE8"/>
<path d="M470.393 160.628H371.525V90.0754H470.393V160.628ZM372.293 159.854H469.625V90.858H372.293V159.854Z" fill="#6AAFE8"/>
<path d="M336.658 58.4802H329.264V57.6157H335.799V51.0364H336.658V58.4802Z" fill="#6AAFE8"/>
<path d="M286.912 58.4802H279.518V51.0364H280.376V57.6157H286.912V58.4802Z" fill="#6AAFE8"/>
<path d="M280.386 8.41201H279.518V0.959106H286.912V1.83271H280.386V8.41201Z" fill="#6AAFE8"/>
<path d="M336.658 8.40284H335.799V1.83264H329.264V0.96814H336.658V8.40284Z" fill="#6AAFE8"/>
<path d="M336.658 19.5232H335.8V39.9163H336.658V19.5232Z" fill="#6AAFE8"/>
<path d="M280.386 19.5232H279.518V39.9163H280.386V19.5232Z" fill="#6AAFE8"/>
<path d="M71.7922 115.656C70.0475 115.656 68.6283 114.227 68.6283 112.471C68.6283 110.714 70.0475 109.286 71.7922 109.286C73.5369 109.286 74.9562 110.714 74.9562 112.471C74.9562 114.227 73.5369 115.656 71.7922 115.656ZM71.7922 110.15C70.5176 110.15 69.4871 111.187 69.4871 112.471C69.4871 113.754 70.5176 114.791 71.7922 114.791C73.0668 114.791 74.0974 113.754 74.0974 112.471C74.0974 111.187 73.0668 110.15 71.7922 110.15Z" fill="#78C2FF"/>
<path d="M308.129 42.5552C306.384 42.5552 304.965 41.1265 304.965 39.3702C304.965 37.6139 306.384 36.1852 308.129 36.1852C309.873 36.1852 311.292 37.6139 311.292 39.3702C311.292 41.1265 309.873 42.5552 308.129 42.5552ZM308.129 37.0497C306.863 37.0497 305.823 38.0871 305.823 39.3702C305.823 40.6533 306.854 41.6907 308.129 41.6907C309.403 41.6907 310.434 40.6533 310.434 39.3702C310.434 38.0871 309.403 37.0497 308.129 37.0497Z" fill="#78C2FF"/>
<path d="M411.625 156.642C409.881 156.642 408.461 155.213 408.461 153.457C408.461 151.701 409.881 150.272 411.625 150.272C413.37 150.272 414.789 151.701 414.789 153.457C414.798 155.213 413.379 156.642 411.625 156.642ZM411.625 151.136C410.351 151.136 409.32 152.174 409.32 153.457C409.32 154.74 410.351 155.777 411.625 155.777C412.9 155.777 413.93 154.74 413.93 153.457C413.93 152.183 412.9 151.136 411.625 151.136Z" fill="#78C2FF"/>
<path d="M92.7916 27.149H71.0599V5.27258H92.7916V27.149ZM71.9187 26.2845H91.9238V6.13708H71.9187V26.2845Z" fill="#A1D4FF"/>
<path d="M82.3597 11.233H81.5009V21.4341H82.3597V11.233Z" fill="#A1D4FF"/>
<path d="M86.9971 15.9012H76.8635V16.7657H86.9971V15.9012Z" fill="#A1D4FF"/>
<path d="M424.001 53.5389H392.931V31.2166H424.001V53.5389ZM393.79 52.6743H423.133V32.081H393.79V52.6743Z" fill="#A1D4FF"/>
<path d="M408.461 44.7393L393.085 31.9811L393.636 31.3168L408.461 43.6109L423.296 31.3168L423.838 31.9811L408.461 44.7393Z" fill="#A1D4FF"/>
<path d="M412.713 40.9629L412.09 41.5579L423.238 53.3887L423.862 52.7938L412.713 40.9629Z" fill="#A1D4FF"/>
<path d="M404.211 40.9974L393.071 52.8364L393.694 53.4309L404.834 41.5919L404.211 40.9974Z" fill="#A1D4FF"/>
<path d="M147.03 75.9703L146.705 75.124C146.416 75.0876 146.135 75.0239 145.855 74.9238L145.195 75.5426L143.279 74.1685L143.65 73.3404C143.469 73.1038 143.315 72.8581 143.189 72.5942L142.285 72.5669L141.896 70.2373L142.737 69.9097C142.773 69.6185 142.836 69.3273 142.935 69.0543L142.321 68.39L143.686 66.4608L144.508 66.8339C144.743 66.6519 144.987 66.4972 145.25 66.3698L145.277 65.4598L147.591 65.0685L147.916 65.9148C148.206 65.9512 148.495 66.0149 148.766 66.115L149.426 65.4962L151.342 66.8703L150.972 67.6984C151.153 67.935 151.306 68.1807 151.433 68.4446L152.337 68.4719L152.725 70.8015L151.885 71.1291C151.849 71.4203 151.776 71.7115 151.686 71.9845L152.31 72.6488L150.945 74.578L150.122 74.2049C149.896 74.3869 149.643 74.5416 149.381 74.669L149.354 75.579L147.03 75.9703ZM145.702 74.1685L145.891 74.2413C146.235 74.3778 146.597 74.4597 146.967 74.487L147.166 74.5052L147.446 75.2332L148.721 75.0148L148.748 74.2322L148.938 74.1503C149.272 73.9956 149.589 73.8045 149.869 73.5679L150.023 73.4405L150.728 73.759L151.478 72.7034L150.945 72.1301L151.017 71.939C151.153 71.5932 151.234 71.2292 151.261 70.8652L151.279 70.665L152.002 70.3829L151.785 69.0998L151.008 69.0725L150.927 68.8905C150.773 68.5538 150.583 68.2353 150.348 67.9532L150.221 67.7985L150.538 67.0887L149.489 66.3334L148.92 66.8703L148.73 66.7975C148.386 66.661 148.025 66.5791 147.663 66.5518L147.464 66.5336L147.184 65.8056L145.909 66.024L145.882 66.8066L145.693 66.8885C145.358 67.0432 145.042 67.2343 144.761 67.4709L144.608 67.5983L143.903 67.2798L143.152 68.3354L143.686 68.9087L143.613 69.0998C143.487 69.4456 143.396 69.8096 143.369 70.1827L143.351 70.3829L142.628 70.665L142.845 71.9481L143.622 71.9754L143.704 72.1574C143.857 72.4941 144.047 72.8126 144.291 73.0947L144.418 73.2494L144.102 73.9592L145.15 74.7145L145.702 74.1685ZM147.302 73.0856C146.777 73.0856 146.262 72.9218 145.828 72.6124C144.68 71.7934 144.409 70.1827 145.232 69.027C146.045 67.8713 147.645 67.5983 148.793 68.4264C149.354 68.8268 149.715 69.4183 149.833 70.0917C149.95 70.7651 149.788 71.4476 149.399 72.0118C149.001 72.576 148.414 72.94 147.745 73.0583C147.591 73.0765 147.446 73.0856 147.302 73.0856ZM147.311 68.5993C146.714 68.5993 146.126 68.8814 145.756 69.4092C145.457 69.8278 145.34 70.3374 145.43 70.8379C145.512 71.3475 145.792 71.7843 146.208 72.0846C146.624 72.3849 147.13 72.5032 147.627 72.4122C148.124 72.3303 148.567 72.0482 148.866 71.6296C149.164 71.211 149.281 70.7014 149.191 70.2009C149.11 69.6913 148.829 69.2545 148.414 68.9542C148.079 68.7085 147.69 68.5993 147.311 68.5993Z" fill="#A1D4FF"/>
<path d="M129.077 78.6914L128.354 76.7895C127.577 76.6985 126.817 76.5256 126.085 76.2708L124.612 77.6631L120.616 74.7966L121.439 72.9402C120.96 72.3305 120.544 71.6662 120.209 70.9564L118.194 70.8927L117.38 66.0242L119.269 65.2962C119.36 64.5136 119.531 63.7492 119.785 63.0121L118.401 61.5288L121.24 57.5066L123.084 58.3347C123.69 57.8433 124.35 57.4338 125.055 57.0971L125.118 55.0678L129.954 54.2488L130.677 56.1507C131.455 56.2417 132.214 56.4146 132.946 56.6694L134.42 55.2771L138.416 58.1436L137.593 60C138.081 60.6097 138.488 61.274 138.822 61.9838L140.838 62.0475L141.652 66.916L139.762 67.644C139.672 68.4266 139.5 69.191 139.238 69.9281L140.621 71.4114L137.774 75.4336L135.93 74.6055C135.324 75.0969 134.664 75.5064 133.959 75.8431L133.896 77.8724L129.077 78.6914ZM125.895 75.2698L126.149 75.3699C126.971 75.6884 127.83 75.8795 128.707 75.9614L128.978 75.9887L129.638 77.7268L133.082 77.1444L133.136 75.288L133.38 75.1788C134.185 74.8148 134.935 74.3507 135.604 73.7774L135.812 73.6045L137.503 74.3598L139.527 71.4933L138.262 70.1374L138.361 69.8826C138.678 69.0545 138.877 68.19 138.949 67.3073L138.976 67.0343L140.703 66.37L140.124 62.9029L138.28 62.8483L138.171 62.6026C137.81 61.7927 137.34 61.0374 136.779 60.364L136.608 60.1547L137.358 58.453L134.51 56.4146L133.163 57.6886L132.91 57.5885C132.088 57.27 131.229 57.0789 130.352 56.997L130.081 56.9697L129.421 55.2316L125.977 55.814L125.914 57.6704L125.669 57.7796C124.865 58.1436 124.115 58.6077 123.446 59.181L123.238 59.3539L121.547 58.5986L119.522 61.4651L120.788 62.821L120.689 63.0758C120.372 63.8948 120.182 64.7684 120.101 65.6511L120.074 65.9241L118.347 66.5884L118.926 70.0555L120.77 70.1101L120.878 70.3558C121.24 71.1657 121.71 71.921 122.27 72.5944L122.442 72.8037L121.692 74.5054L124.539 76.5438L125.895 75.2698ZM129.511 72.0848C128.39 72.0848 127.26 71.7481 126.284 71.0474C123.78 69.2547 123.193 65.7421 124.973 63.2123C126.754 60.6916 130.244 60.1001 132.748 61.8928C135.252 63.6855 135.839 67.1981 134.058 69.7188C132.983 71.2658 131.256 72.0848 129.511 72.0848ZM129.529 61.7199C128.056 61.7199 126.601 62.4115 125.678 63.7128C124.946 64.7502 124.657 66.006 124.874 67.2527C125.082 68.4994 125.76 69.6005 126.79 70.3285C128.906 71.8482 131.862 71.3477 133.371 69.2092C134.104 68.1809 134.393 66.916 134.176 65.6693C133.968 64.4226 133.29 63.3215 132.259 62.5935C131.428 62.0111 130.47 61.7199 129.529 61.7199Z" fill="#A1D4FF"/>
<path d="M16.2697 83.2505C7.40168 83.2505 0.187927 75.9887 0.187927 67.0616H1.04671C1.04671 75.5155 7.87175 82.386 16.2697 82.386C24.6677 82.386 31.4928 75.5155 31.4928 67.0616C31.4928 58.6168 24.6677 51.7372 16.2697 51.7372V50.8727C25.1378 50.8727 32.3515 58.1345 32.3515 67.0616C32.3515 75.9887 25.1378 83.2505 16.2697 83.2505ZM16.2697 81.0028C8.6311 81.0028 2.42076 74.7511 2.42076 67.0616C2.42076 59.3721 8.6311 53.1204 16.2697 53.1204C23.9084 53.1204 30.1187 59.3721 30.1187 67.0616H29.2509C29.2509 59.8544 23.4293 53.9849 16.2607 53.9849C9.10117 53.9849 3.2705 59.8453 3.2705 67.0616C3.2705 74.2688 9.09213 80.1383 16.2607 80.1383V81.0028H16.2697Z" fill="#78C2FF"/>
<path d="M14.299 72.4213L8.49548 66.5882L9.10116 65.9694L14.299 71.2019L23.4292 62.0018L24.0349 62.6206L14.299 72.4213Z" fill="#78C2FF"/>
<path d="M355.94 265.587H233.758H111.576L84.8366 366.206H234.554H382.68L355.94 265.587Z" fill="url(#paint11_linear)"/>
<path d="M120.815 283.241H135.83C136.454 283.241 136.933 283.732 136.815 284.26L135.36 290.83C135.27 291.24 134.854 291.531 134.375 291.531H119.106C118.465 291.531 117.986 291.021 118.13 290.485L119.839 283.914C119.947 283.523 120.345 283.241 120.815 283.241Z" fill="white"/>
<path d="M142.718 283.241H154.063L152.554 291.531H140.992L142.718 283.241Z" fill="white"/>
<path d="M159.74 283.241H171.094L169.901 291.531L158.339 291.549L159.74 283.241Z" fill="white"/>
<path d="M176.771 283.241H188.116L187.258 291.531H175.687L176.771 283.241Z" fill="white"/>
<path d="M193.793 283.241H205.147L204.605 291.531H193.034L193.793 283.241Z" fill="white"/>
<path d="M210.815 283.241H222.169L221.952 291.531L210.39 291.549L210.815 283.241Z" fill="white"/>
<path d="M347.063 283.241H330.032L331.867 291.531H349.214L347.063 283.241Z" fill="white"/>
<path d="M324.355 283.241H313.01L314.52 291.531H326.082L324.355 283.241Z" fill="white"/>
<path d="M307.333 283.241H295.979L297.172 291.531L308.734 291.549L307.333 283.241Z" fill="white"/>
<path d="M290.311 283.241H278.957L279.816 291.531H291.387L290.311 283.241Z" fill="white"/>
<path d="M273.28 283.241H261.935L262.469 291.531H274.04L273.28 283.241Z" fill="white"/>
<path d="M256.258 283.241H244.904L245.121 291.531L256.692 291.549L256.258 283.241Z" fill="white"/>
<path d="M227.846 283.241H239.191L239.381 291.531H227.846V283.241Z" fill="white"/>
<path d="M115.825 297.719H139.545L138.19 306.273H114.026L115.825 297.719Z" fill="white"/>
<path d="M350.76 297.719H321.444L323.117 306.273H352.984L350.76 297.719Z" fill="white"/>
<path d="M315.577 297.719H303.853L305.191 306.273H317.141L315.577 297.719Z" fill="white"/>
<path d="M297.995 297.719H286.261L287.265 306.273H299.215L297.995 297.719Z" fill="white"/>
<path d="M280.404 297.719H268.67L269.339 306.273H281.29L280.404 297.719Z" fill="white"/>
<path d="M262.812 297.719H251.088L251.413 306.273H263.364L262.812 297.719Z" fill="white"/>
<path d="M112.281 312.971H136.526L134.763 321.461H110.067L112.281 312.971Z" fill="white"/>
<path d="M142.592 312.971H154.714L153.277 321.461H140.929L142.592 312.971Z" fill="white"/>
<path d="M160.78 312.971H172.902H251.693L252.037 321.461H159.451L160.78 312.971Z" fill="white"/>
<path d="M257.768 312.971H269.89L270.55 321.461H258.211L257.768 312.971Z" fill="white"/>
<path d="M275.956 312.971H288.078L289.073 321.461H276.724L275.956 312.971Z" fill="white"/>
<path d="M294.135 312.971H306.258L307.586 321.461H295.247L294.135 312.971Z" fill="white"/>
<path d="M312.323 312.971H324.445L326.109 321.461H313.76L312.323 312.971Z" fill="white"/>
<path d="M330.511 312.971H354.756L356.971 321.461H332.274L330.511 312.971Z" fill="white"/>
<path d="M245.248 297.719H233.614V306.273H245.465L245.248 297.719Z" fill="white"/>
<path d="M227.656 297.719H215.932L215.597 306.273H227.539L227.656 297.719Z" fill="white"/>
<path d="M210.065 297.719H198.34L197.671 306.273H209.622L210.065 297.719Z" fill="white"/>
<path d="M192.474 297.719H180.749L179.745 306.273H191.696L192.474 297.719Z" fill="white"/>
<path d="M174.882 297.719H163.157L161.82 306.273H173.77L174.882 297.719Z" fill="white"/>
<path d="M157.291 297.719H145.566L143.894 306.273H155.844L157.291 297.719Z" fill="white"/>
<path d="M121.375 278.027L123.301 270.619H128.806L127.016 278.027H121.375Z" fill="white"/>
<path d="M134.32 270.619H145.34L143.803 278.027H132.585L134.32 270.619Z" fill="white"/>
<path d="M150.854 270.619H161.874L160.626 278.027H149.408L150.854 270.619Z" fill="white"/>
<path d="M167.388 270.619H178.408L177.449 278.027H166.231L167.388 270.619Z" fill="white"/>
<path d="M183.922 270.619H194.941L194.263 278.027H183.054L183.922 270.619Z" fill="white"/>
<path d="M200.456 270.619H211.475L211.086 278.027H199.877L200.456 270.619Z" fill="white"/>
<path d="M216.989 270.619H228.009L227.909 278.027H216.7L216.989 270.619Z" fill="white"/>
<path d="M233.514 270.619H244.543L244.733 278.027H233.514V270.619Z" fill="white"/>
<path d="M250.048 270.619H261.077L261.556 278.027H250.337L250.048 270.619Z" fill="white"/>
<path d="M266.582 270.619H277.61L278.379 278.027H267.16L266.582 270.619Z" fill="white"/>
<path d="M283.116 270.619H294.135L295.202 278.027H283.983L283.116 270.619Z" fill="white"/>
<path d="M299.649 270.619H310.669L312.025 278.027H300.807L299.649 270.619Z" fill="white"/>
<path d="M316.183 270.619H327.203L328.839 278.027H317.629L316.183 270.619Z" fill="white"/>
<path d="M332.717 270.619H343.737L345.662 278.027H334.453L332.717 270.619Z" fill="white"/>
<path d="M374.897 374.041H92.6108C88.3169 374.041 84.8276 370.537 84.8276 366.206H382.68C382.68 370.528 379.2 374.041 374.897 374.041Z" fill="url(#paint12_linear)"/>
<path d="M268.381 333.692C268.091 331.917 266.573 330.625 264.783 330.625H233.758H202.725C200.944 330.625 199.416 331.926 199.127 333.692L195.249 357.306C194.878 359.545 196.596 361.574 198.847 361.574H233.749H268.652C270.903 361.574 272.611 359.545 272.25 357.306L268.381 333.692Z" fill="#4D78EB"/>
<path d="M160.699 130.452H135.441V133.055H160.699V130.452Z" fill="#E0E0E0"/>
<path d="M186.001 150.054H167.768V152.656H186.001V150.054Z" fill="#E0E0E0"/>
<path d="M200.953 150.054H188.849V152.656H200.953V150.054Z" fill="#1487E3"/>
<path d="M147.835 199.357H135.731V201.96H147.835V199.357Z" fill="#1487E3"/>
<path d="M232.556 150.054H203.339V152.656H232.556V150.054Z" fill="#E0E0E0"/>
<path d="M154.506 189.484H135.731V192.086H154.506V189.484Z" fill="#E0E0E0"/>
<path d="M173.363 209.158H161.901V211.761H173.363V209.158Z" fill="#E0E0E0"/>
<path d="M158.439 209.158H135.731V211.761H158.439V209.158Z" fill="#1487E3"/>
<path d="M148.26 218.959H135.731V221.561H148.26V218.959Z" fill="#E0E0E0"/>
<path d="M183.551 130.452H165.616V133.055H183.551V130.452Z" fill="#78C2FF"/>
<path d="M183.551 159.854H165.616V162.457H183.551V159.854Z" fill="#1487E3"/>
<path d="M164.315 169.664H156.649V172.267H164.315V169.664Z" fill="#E0E0E0"/>
<path d="M166.195 179.61H148.983V182.213H166.195V179.61Z" fill="#78C2FF"/>
<path d="M192.555 179.61H168.798V182.213H192.555V179.61Z" fill="#1487E3"/>
<path d="M153.666 169.737H135.731V172.339H153.666V169.737Z" fill="#1487E3"/>
<path d="M146.37 179.61H135.731V182.213H146.37V179.61Z" fill="#1487E3"/>
<path d="M177.956 169.737H167.921V172.339H177.956V169.737Z" fill="#FF8761"/>
<path d="M146.063 228.769H136.029V231.371H146.063V228.769Z" fill="#FF8761"/>
<path d="M153.593 150.054H135.658V152.656H153.593V150.054Z" fill="#78C2FF"/>
<path d="M169.449 199.357H151.514V201.96H169.449V199.357Z" fill="#78C2FF"/>
<path d="M169.666 218.959H151.731V221.561H169.666V218.959Z" fill="#78C2FF"/>
<path d="M201.522 218.959H183.587V221.561H201.522V218.959Z" fill="#78C2FF"/>
<path d="M161.223 159.854H135.658V162.457H161.223V159.854Z" fill="#78C2FF"/>
<path d="M273.371 130.452H255.436V133.055H273.371V130.452Z" fill="#78C2FF"/>
<path d="M209.495 228.769H191.56V231.371H209.495V228.769Z" fill="#78C2FF"/>
<path d="M290.953 130.452H278.948V133.055H290.953V130.452Z" fill="#78C2FF"/>
<path d="M331.569 140.253H319.564V142.855H331.569V140.253Z" fill="#78C2FF"/>
<path d="M211.213 130.452H188.369V133.055H211.213V130.452Z" fill="#1487E3"/>
<path d="M300.237 140.253H277.393V142.855H300.237V140.253Z" fill="#1487E3"/>
<path d="M272.214 150.054H249.37V152.656H272.214V150.054Z" fill="#1487E3"/>
<path d="M242.473 159.854H219.629V162.457H242.473V159.854Z" fill="#1487E3"/>
<path d="M291.333 150.054H275.088V152.656H291.333V150.054Z" fill="#78C2FF"/>
<path d="M250.961 130.452H228.117V133.055H250.961V130.452Z" fill="#FF8761"/>
<path d="M215.444 159.854H202.047V162.457H215.444V159.854Z" fill="#FF8761"/>
<path d="M204.957 199.503H191.56V202.106H204.957V199.503Z" fill="#FF8761"/>
<path d="M223.805 130.452H215.444V133.055H223.805V130.452Z" fill="#E0E0E0"/>
<path d="M196.731 159.854H188.369V162.457H196.731V159.854Z" fill="#E0E0E0"/>
<path d="M314.104 140.253H305.742V142.855H314.104V140.253Z" fill="#E0E0E0"/>
<path d="M148.522 140.253H135.441V142.855H148.522V140.253Z" fill="#1487E3"/>
<path d="M180.677 189.557H170.344V192.159H180.677V189.557Z" fill="#1487E3"/>
<path d="M155.953 140.253H151.731V142.855H155.953V140.253Z" fill="#1487E3"/>
<path d="M273.371 140.253H238.459V142.855H273.371V140.253Z" fill="#E0E0E0"/>
<path d="M239.878 218.959H204.958V221.561H239.878V218.959Z" fill="#E0E0E0"/>
<path d="M163.374 140.253H159.062V142.855H163.374V140.253Z" fill="#FF8761"/>
<path d="M235.232 140.253H223.805V142.855H235.232V140.253Z" fill="#1487E3"/>
<path d="M246.658 150.054H235.232V152.656H246.658V150.054Z" fill="#FF8761"/>
<path d="M187.917 228.769H176.491V231.371H187.917V228.769Z" fill="#FF8761"/>
<path d="M220.786 140.253H196.478V142.855H220.786V140.253Z" fill="#1487E3"/>
<path d="M188.053 199.503H173.852V202.106H188.053V199.503Z" fill="#1487E3"/>
<path d="M180.044 218.959H172.939V221.561H180.044V218.959Z" fill="#1487E3"/>
<path d="M193.025 140.253H184.663V142.855H193.025V140.253Z" fill="#78C2FF"/>
<path d="M164.884 150.054H156.522V152.656H164.884V150.054Z" fill="#FF8761"/>
<path d="M166.547 189.557H158.186V192.159H166.547V189.557Z" fill="#FF8761"/>
<path d="M181.481 140.253H166.909V142.855H181.481V140.253Z" fill="#1487E3"/>
<g opacity="0.76">
<path opacity="0.76" d="M380.248 244.157H274.582C272.575 244.157 270.957 242.519 270.957 240.507V166.77C270.957 164.75 272.584 163.121 274.582 163.121H380.239C382.246 163.121 383.864 164.759 383.864 166.77V240.507C383.873 242.519 382.255 244.157 380.248 244.157Z" fill="white"/>
</g>
<path d="M371.678 210.45H353.481C352.713 210.45 352.089 209.822 352.089 209.049V206.219C352.089 205.445 352.713 204.817 353.481 204.817H371.678C372.447 204.817 373.071 205.445 373.071 206.219V209.049C373.071 209.831 372.456 210.45 371.678 210.45Z" fill="#4AAFFF"/>
<path d="M371.678 220.997H353.481C352.713 220.997 352.089 220.369 352.089 219.596V216.766C352.089 215.992 352.713 215.364 353.481 215.364H371.678C372.447 215.364 373.071 215.992 373.071 216.766V219.596C373.071 220.369 372.456 220.997 371.678 220.997Z" fill="#4AAFFF"/>
<path d="M371.678 231.544H353.481C352.713 231.544 352.089 230.916 352.089 230.143V227.312C352.089 226.539 352.713 225.911 353.481 225.911H371.678C372.447 225.911 373.071 226.539 373.071 227.312V230.143C373.071 230.916 372.456 231.544 371.678 231.544Z" fill="#4AAFFF"/>
<path d="M341.956 192.259C337.291 179.128 324.816 171.056 311.672 171.457C308.49 171.557 305.272 172.148 302.108 173.286C292.535 176.735 285.674 184.406 282.853 193.479C280.901 199.767 280.883 206.719 283.26 213.399C283.495 214.063 283.748 214.718 284.029 215.355C285.276 218.249 286.912 220.861 288.856 223.163C297.01 232.818 310.542 236.895 323.099 232.372C339.316 226.539 347.75 208.576 341.956 192.259ZM320.477 224.974C311.067 228.359 300.915 225.301 294.804 218.067C293.349 216.347 292.119 214.381 291.179 212.206C290.971 211.724 290.781 211.242 290.601 210.741C288.82 205.736 288.829 200.522 290.293 195.808C292.409 189.011 297.552 183.25 304.73 180.666C307.098 179.81 309.512 179.365 311.898 179.292C321.752 178.991 331.099 185.043 334.597 194.889C338.954 207.138 332.627 220.606 320.477 224.974Z" fill="#4AAFFF"/>
<path d="M290.302 195.817L282.853 193.479C285.674 184.406 292.535 176.735 302.108 173.286C305.272 172.148 308.49 171.557 311.672 171.457L311.907 179.31C309.521 179.383 307.107 179.829 304.739 180.684C297.561 183.259 292.418 189.02 290.302 195.817Z" fill="#1A598C"/>
<path d="M291.179 212.216L284.029 215.346C283.757 214.709 283.495 214.054 283.26 213.39C280.883 206.71 280.901 199.758 282.853 193.47L290.302 195.808C288.838 200.522 288.829 205.736 290.61 210.741C290.781 211.251 290.971 211.733 291.179 212.216Z" fill="#2273B5"/>
<path d="M288.856 223.163C286.912 220.861 285.276 218.249 284.029 215.355L291.179 212.225C292.11 214.391 293.34 216.356 294.804 218.085L288.856 223.163Z" fill="#3788CC"/>
<path d="M323.008 221.434C323.008 221.434 321.499 218.777 323.894 211.642C326.208 204.745 334.227 205.372 336.776 209.786C339.325 214.199 338.466 216.948 334.715 221.934C330.963 226.93 324.572 223.718 323.008 221.434Z" fill="#EEA886"/>
<path d="M341.63 344.075C341.63 344.075 342.028 347.005 342.073 347.442C342.118 347.878 346.485 347.178 346.485 347.178L346.837 343.692C346.846 343.692 342.173 343.656 341.63 344.075Z" fill="#EEA886"/>
<path d="M342.028 347.069C342.028 347.069 340.645 348.834 339.307 349.598C337.969 350.372 335.872 350.672 335.076 351.464C334.507 352.037 332.997 354.512 338.548 354.458C344.098 354.412 346.774 354.804 347.37 353.857C347.967 352.911 346.512 346.859 346.512 346.859C346.512 346.859 345.165 347.251 342.028 347.069Z" fill="#414773"/>
<path d="M311.419 344.075C311.419 344.075 311.817 347.005 311.862 347.442C311.907 347.878 316.274 347.178 316.274 347.178L316.626 343.692C316.635 343.692 311.971 343.656 311.419 344.075Z" fill="#EEA886"/>
<path d="M311.826 347.069C311.826 347.069 310.443 348.834 309.105 349.598C307.767 350.372 302.85 351 302.054 351.792C301.485 352.365 300.535 354.676 308.346 354.458C313.896 354.303 316.572 354.804 317.169 353.857C317.765 352.911 316.31 346.859 316.31 346.859C316.31 346.859 314.583 347.178 311.826 347.069Z" fill="#414773"/>
<path d="M340.157 271.184C340.157 271.184 342.39 278.181 342.1 284.215C341.802 290.248 343.257 296.846 343.854 303.143C344.514 310.168 347.226 326.794 347.316 330.552C347.416 334.31 346.901 346.304 346.901 346.304L341.486 346.431C341.486 346.431 336.939 317.366 335.754 314.4C334.579 311.433 328.731 290.294 328.532 287.919C328.333 285.543 340.157 271.184 340.157 271.184Z" fill="#2D314F"/>
<path d="M317.702 270.456C317.702 270.456 314.411 288.956 314.023 292.65C313.634 296.345 313.372 310.514 313.173 312.816C312.974 315.118 311.862 343.001 310.813 346.431H316.852C316.852 346.431 323.053 326.166 323.053 316.574C323.053 306.983 327.157 295.726 329.815 289.402C332.464 283.077 338.539 282.923 340.166 271.184C340.157 271.184 319.908 266.734 317.702 270.456Z" fill="#2D314F"/>
<path d="M325.205 223.318C325.205 223.318 325.883 225.31 325.205 226.739C324.527 228.159 333.91 227.312 333.91 227.312C333.91 227.312 333.485 224.364 334.715 221.943C335.935 219.523 325.205 223.318 325.205 223.318Z" fill="#EEA886"/>
<path d="M340.6 272.703C340.6 272.703 337.219 276.198 317.395 272.157L317.693 270.447L340.229 271.302L340.6 272.703Z" fill="#2B3B57"/>
<path d="M323.786 227.203C323.786 227.203 320.314 227.558 319.329 227.749C318.335 227.941 311.672 226.548 310.298 226.403C308.933 226.257 303.094 222.235 302.904 221.762C302.714 221.288 299.351 212.725 299.17 210.869C298.98 209.012 295.898 209.968 296.16 211.251C296.657 213.635 297.29 219.432 297.643 221.115C298.022 222.926 299.026 227.04 299.595 227.54C300.165 228.05 305.417 232.063 310.56 233.774C315.704 235.484 319.573 238.005 319.573 238.005H344.921C344.921 238.005 354.774 223.818 354.991 221.68C355.199 219.541 348.103 205.336 346.692 203.553C345.273 201.769 343.23 204.135 343.23 204.135C343.23 204.135 347.47 216.666 348.039 218.44C348.609 220.224 343.104 228.05 341.594 228.068C340.084 228.095 336.206 227.595 334.489 227.522C332.762 227.449 330.945 226.694 330.945 226.694L323.786 227.203Z" fill="#EEA886"/>
<path d="M312.857 236.676C312.857 236.676 315.957 238.751 316.246 242.318C316.527 245.886 317.666 251.509 318.226 253.429C318.796 255.35 317.729 269.318 317.584 270.31C317.44 271.311 337.192 273.677 340.229 271.311C340.229 271.311 341.079 258.271 341.431 254.567C341.784 250.863 343.483 241.891 344.053 240.68C344.622 239.47 351.484 229.779 351.764 228.495C351.764 228.495 348.211 222.799 345.662 222.726C345.662 222.726 341.612 227.504 340.301 227.713C338.982 227.922 330.9 226.439 330.891 226.421C330.891 226.421 330.005 227.631 325.313 226.202C325.313 226.202 319.727 226.839 318.814 226.958C317.711 227.103 310.063 225.993 310.063 225.993C310.063 225.993 306.99 231.207 307.532 233.846L312.857 236.676Z" fill="#FFC655"/>
<path d="M299.342 211.988C299.342 211.988 298.646 208.685 299.487 207.738C299.966 207.201 301.105 205.773 301.204 205.563C301.313 205.354 302.533 204.644 302.533 204.308C302.533 203.971 301.331 203.543 300.291 204.517C299.252 205.491 298.601 205.7 298.185 205.591C297.769 205.482 297.163 201.996 297.118 201.132C297.064 200.267 296.739 197.983 296.196 198.138C295.663 198.293 295.681 199.294 295.681 199.294C295.681 199.294 295.057 197.565 294.641 197.901C294.226 198.238 294.28 199.084 294.28 199.084C294.28 199.084 293.493 198.111 293.285 198.82C293.077 199.53 293.285 200.158 293.285 200.158C293.285 200.158 292.481 199.712 292.427 200.813C292.372 201.914 292.662 205.145 293.231 206.301C293.801 207.456 295.952 210.477 296.205 211.651C296.458 212.825 299.342 211.988 299.342 211.988Z" fill="#EEA886"/>
<path d="M343.899 206.191C343.899 206.191 341.54 202.206 340.735 201.842C339.931 201.487 338.801 201.286 337.806 200.568C336.812 199.858 335.51 199.266 335.574 199.021C335.646 198.784 336.812 198.875 338.059 199.421C339.307 199.967 339.858 199.703 339.976 199.421C340.093 199.139 339.307 197.128 338.936 196.645C338.557 196.172 335.872 193.451 336.315 193.042C336.767 192.641 338.511 194.134 338.792 194.443C338.792 194.443 337.4 191.504 337.942 191.358C338.484 191.213 339.497 192.259 339.497 192.259C339.497 192.259 339.379 189.739 342.064 193.824C342.064 193.824 341.495 192.469 342.326 192.924C343.149 193.379 343.953 195.917 344.216 197.201C344.478 198.484 345.653 202.57 346.656 203.552C347.678 204.553 343.899 206.191 343.899 206.191Z" fill="#EEA886"/>
<path d="M334.715 221.943C334.715 221.943 333.476 222.053 330.828 221.134C328.188 220.214 327.989 215.564 327.42 216.119C326.254 217.248 325.151 216.465 324.708 215.801C324.708 215.801 326 214.09 325.404 213.271C324.807 212.452 323.831 211.852 323.831 211.852C323.831 211.852 325.693 202.833 334.145 206.947C344.053 211.751 334.715 221.943 334.715 221.943Z" fill="#353A3D"/>
<path d="M325.205 226.739L325.503 225.438C325.503 225.438 330.9 225.329 333.847 225.756L334.154 227.312C334.154 227.312 330.385 229.032 325.205 226.739Z" fill="#D4D8E8"/>
<path d="M326.534 214.982C327.022 214.163 328.839 213.608 329.047 215.928C329.21 217.73 325.811 219.696 325.774 218.021C325.747 216.338 326.208 215.519 326.534 214.982Z" fill="#EEA886"/>
<path d="M299.215 211.233C299.215 211.233 297.272 211.278 296.323 212.143C296.323 212.143 296.259 212.689 296.476 213.116C296.476 213.116 298.167 212.325 299.459 212.179C299.469 212.179 299.441 211.46 299.215 211.233Z" fill="#E55353"/>
<path d="M296.919 211.724C296.739 212.152 296.937 212.643 297.362 212.825C297.787 213.007 298.275 212.807 298.456 212.379C298.637 211.952 298.438 211.46 298.013 211.278C297.588 211.096 297.1 211.297 296.919 211.724Z" fill="#353A3D"/>
<path d="M249.09 142.055C249.09 142.055 251.874 146.805 253.049 147.578C254.649 148.634 253.646 149.699 252.886 149.699C252.127 149.699 248.258 149.981 247.408 149.007C246.559 148.033 246.134 145.112 245.338 144.348C244.543 143.583 243.729 140.553 245.727 139.816C247.49 139.161 249.09 142.055 249.09 142.055Z" fill="#6069A8"/>
<path d="M247.888 139.971C247.888 139.971 251.079 145.531 251.621 146.359C252.172 147.178 250.59 147.178 249.605 146.787C248.62 146.395 246.152 142.409 245.799 141.681C245.374 140.817 245.727 139.825 245.727 139.825L247.888 139.971Z" fill="#202338"/>
<path d="M244.651 142.965L245.392 148.661L245.781 148.68L245.655 144.575L244.651 142.965Z" fill="#6069A8"/>
<path d="M221.482 142.054C221.482 142.054 224.266 146.805 225.442 147.578C227.042 148.634 226.038 149.698 225.279 149.698C224.52 149.698 220.651 149.981 219.801 149.007C218.951 148.033 218.526 145.112 217.731 144.348C216.935 143.583 216.094 140.471 218.119 139.816C219.9 139.233 221.482 142.054 221.482 142.054Z" fill="#6069A8"/>
<path d="M220.452 139.98C220.452 139.98 223.471 145.531 224.022 146.35C224.574 147.169 222.983 147.169 222.007 146.777C221.021 146.386 218.553 142.4 218.201 141.672C217.776 140.808 218.128 139.816 218.128 139.816L220.452 139.98Z" fill="#202338"/>
<path d="M217.053 142.965L217.785 148.661L218.174 148.68L218.056 144.575L217.053 142.965Z" fill="#6069A8"/>
<path d="M209.134 98.8296L234.319 110.387C234.319 110.387 237.13 111.306 237.447 114.445C238.432 124.255 245.718 139.816 245.718 139.816C248.059 140.963 247.878 139.971 247.878 139.971C246.405 135.211 244.606 115.583 243.973 107.684C243.838 106.009 243.756 104.872 243.738 104.499C243.729 104.253 243.458 103.926 242.988 103.543C239.535 100.722 225.306 94.8802 225.306 94.8802C214.63 94.6163 209.134 98.8296 209.134 98.8296Z" fill="#202338"/>
<path d="M204.388 103.789C205.165 110.642 214.883 109.859 214.883 109.859H226.662C226.662 109.859 223.57 116.793 222.368 122.635C221.103 128.842 218.11 139.816 218.11 139.816C218.11 139.816 218.309 140.189 220.434 139.98C220.434 139.98 229.681 121.425 233.216 116.766C233.975 115.765 236.163 110.314 236.533 107.065C236.66 105.973 236.579 105.127 236.181 104.781C235.774 104.435 234.834 103.789 233.577 102.988C229.889 100.65 223.48 97.037 219.909 96.2362C215.127 95.1533 207.57 93.124 207.57 93.124C207.57 93.124 203.611 96.9369 204.388 103.789Z" fill="#202338"/>
<path d="M212.406 51.0001C212.406 51.0001 210.644 47.6331 211.502 44.0386C212.361 40.4532 215.67 36.8769 220.515 38.5149C225.36 40.1529 229.275 43.9476 226.373 48.3247C223.471 52.7018 229.003 54.6765 227.593 56.7604C226.183 58.8443 226.716 61.0192 227.313 61.5015C227.91 61.9838 229.835 63.7128 229.618 65.7603C229.41 67.8078 220.226 59.7998 220.226 59.7998C220.226 59.7998 215.218 49.6897 212.406 51.0001Z" fill="#464240"/>
<path d="M227.168 94.0612C227.168 94.0612 226.436 97.6284 207.624 93.1239C207.624 93.1239 213.934 91.0218 227.168 94.0612Z" fill="#EB4747"/>
<path d="M207.407 94.1248C207.118 94.689 206.82 95.2441 206.53 95.8083C213.41 96.0085 220.28 96.2087 227.159 96.418C226.074 92.7507 226.427 87.7821 226.617 84.0147C226.852 79.4101 229.374 76.2069 229.103 71.5568C230.459 71.7752 230.694 71.8207 232.059 72.03C229.971 66.0513 229.265 63.0938 222.793 60.7915C220.687 60.0453 219.304 59.8906 217.017 60.0817C209.523 60.7005 207.263 60.7915 203.574 67.6347C209.342 68.5629 208.393 70.6377 210.137 76.4162C210.987 79.2281 211.882 82.3676 211.421 85.3433C210.987 88.2553 207.407 91.4585 207.407 94.1248Z" fill="#325BB3"/>
<path d="M219.376 62.2385C216.312 61.6561 216.962 59.9362 216.962 59.9362C216.962 59.9362 217.107 58.9625 217.161 57.7431C217.179 57.4337 217.179 57.097 217.179 56.7603C217.179 56.2507 217.152 55.732 217.098 55.2406C216.845 53.1658 222.667 54.4034 222.667 54.4034C222.667 54.4034 222.332 58.5985 223.137 59.8543C223.932 61.1101 222.44 62.8209 219.376 62.2385Z" fill="#EEA886"/>
<path d="M213.518 59.9272C213.518 59.9272 219.71 67.1162 221.997 68.7906C221.997 68.7906 224.628 66.3973 223.01 60.0819C223.01 60.0819 220.018 58.5713 213.518 59.9272Z" fill="#EEA886"/>
<path d="M213.69 42.6099C213.69 42.6099 210.472 48.8434 213.663 54.7493C216.854 60.6552 223.118 52.174 223.516 51.1821C223.923 50.1902 226.065 44.5664 221.799 42.8556C217.532 41.1448 214.603 40.9173 213.69 42.6099Z" fill="#EEA886"/>
<path d="M214.757 44.8211C214.757 44.8211 212.542 47.7422 212.28 49.908C212.28 49.908 211.403 45.8221 213.889 41.8909C216.375 37.9688 222.712 41.6998 223.561 43.2741C224.411 44.8393 226.897 46.2225 222.721 52.9656C222.721 52.9747 215.209 47.7149 214.757 44.8211Z" fill="#464240"/>
<path d="M219.891 55.368C219.891 55.368 219.331 56.5965 217.152 57.734C217.17 57.4246 217.17 57.0879 217.17 56.7512C217.179 56.7603 218.653 56.5783 219.891 55.368Z" fill="#A77860"/>
<path d="M187.411 88.5193C187.411 88.5193 185.883 89.2018 185.16 88.8924C184.437 88.583 183.316 88.5193 182.964 88.5193C182.493 88.5193 181.011 87.9915 181.038 88.5648C181.065 89.1472 183.443 89.5567 183.931 89.7387C184.419 89.9207 182.475 90.9945 182.295 91.4768C182.114 91.9591 184.301 95.0895 185.54 94.1977C186.778 93.3059 187.447 91.5223 187.7 91.404C187.954 91.2948 188.632 90.7943 188.632 90.7943L187.411 88.5193Z" fill="#EEA886"/>
<path d="M182.521 91.1947C182.521 91.1947 178.941 94.1886 178.878 94.589C178.823 94.9894 179.013 95.1805 179.357 94.9166C179.7 94.6527 182.909 92.132 182.909 92.132C182.909 92.132 179.321 96.3999 179.194 96.7184C179.122 96.9004 179.465 97.2917 179.664 97.1643C179.863 97.0369 183.687 93.0238 183.687 93.0238C183.687 93.0238 180.342 97.0187 180.324 97.3099C180.306 97.5738 180.713 97.8559 180.984 97.5738C181.255 97.2917 184.582 93.77 184.582 93.77C184.582 93.77 182.349 96.8367 182.484 97.1006C182.566 97.2644 182.855 97.6102 183.407 96.8003C183.958 95.9904 185.468 94.225 185.468 94.225L182.521 91.1947Z" fill="#EEA886"/>
<path d="M225.433 109.859H214.883C214.883 109.859 205.165 110.641 204.388 103.789C203.611 96.9368 207.588 93.1331 207.588 93.1331C207.588 93.1331 212.723 94.5071 217.206 95.5991C219.448 95.1168 222.151 94.8074 225.315 94.8893C225.315 94.8893 244.317 101.214 243.747 104.535C243.738 104.535 235.792 100.258 225.433 109.859Z" fill="#FF7E55"/>
<path d="M218.571 97.9924L238.685 97.6921L228.524 102.888L218.571 97.9924Z" fill="#5E5853"/>
<path d="M224.818 95.4081C224.818 95.4081 220.289 97.1735 214.748 95.581L214.485 93.4971L225.903 94.1341L224.818 95.4081Z" fill="#325BB3"/>
<path d="M228.524 102.888L218.571 99.0024V97.9923L229.32 101.896L228.524 102.888Z" fill="#91887F"/>
<path d="M224.746 96.3728C224.691 97.119 225.442 97.6559 226.129 97.3647L227.295 96.8642C227.647 96.7095 227.846 96.3364 227.792 95.9633C227.304 92.8966 226.264 80.9756 227.792 78.9372C228.352 78.1819 228.705 77.5176 228.904 76.9352C229.907 79.5469 231.164 82.9139 231.661 84.7248L241.162 97.4466L244.353 98.2565C240.375 88.6105 237.184 83.5054 237.184 83.5054C236.561 81.8219 234.78 76.735 233.198 72.2032C232.203 69.3458 231.281 66.7068 230.793 65.2872C230.54 64.5683 230.052 63.9586 229.401 63.5673C227.928 62.6846 225.478 61.2832 223.254 60.2003C223.245 60.2003 223.236 60.1912 223.227 60.1912C223.155 60.1548 223.082 60.1184 223.01 60.0911C227.241 66.5339 225.586 84.7248 224.755 96.3546C224.746 96.3546 224.746 96.3637 224.746 96.3728Z" fill="#EDDAD3"/>
<path d="M209.053 60.6279C207.697 60.8372 204.343 64.1223 202.553 67.4347C200.519 71.2203 198.449 75.5246 196.894 76.9351C194.037 79.5377 186.046 88.7469 185.667 88.5194C185.522 88.4375 187.854 91.2676 188.153 91.4041C188.297 91.4678 201.296 80.1383 202.535 78.4093C203.719 76.7713 206.883 69.9008 207.832 70.0555C207.832 70.0555 207.832 70.0555 207.832 70.0646C207.905 70.2193 209.053 72.7309 210.146 76.4073C210.164 76.471 210.183 76.5256 210.201 76.5893C210.951 79.1464 210.879 81.931 210.472 85.0523C210.164 87.4092 208.42 91.2676 207.362 93.1422C207.236 93.3697 207.272 93.7974 207.407 94.125C207.489 94.3161 207.606 94.4799 207.751 94.5345L211.566 95.9541L212.461 96.2908C213.102 96.5274 213.78 96.4091 214.287 96.036C214.702 95.7357 215.001 95.2625 215.073 94.6983C215.923 88.1281 216.999 81.4214 217.848 78.8916C221.6 67.7987 216.384 59.4722 216.384 59.4722C216.384 59.4722 210.237 60.182 209.053 60.6279Z" fill="#EDDAD3"/>
<path d="M228.524 102.888L234.509 86.4445L253.8 86.7539L248.095 101.914L228.524 102.888Z" fill="#6E6760"/>
<path d="M240.683 93.7154C240.095 94.8984 240.276 96.1906 241.081 96.6001C241.885 97.0096 243.024 96.3726 243.612 95.1896C244.199 94.0066 244.028 92.7144 243.214 92.3049C242.4 91.8954 241.27 92.5324 240.683 93.7154Z" fill="#807066"/>
<path d="M220.352 48.816C220.352 48.816 221.591 50.7543 220.443 52.4196C219.304 54.0849 220.732 55.732 220.976 57.4974C221.22 59.2628 216.212 63.9584 221.79 66.3244C227.367 68.6904 229.139 64.7774 227.711 62.6298C226.291 60.4822 225.279 58.735 225.161 55.6683C225.044 52.6107 224.041 47.8332 220.352 48.816Z" fill="#464240"/>
<path d="M179.971 25.6018H203.728V42.9373V46.5864L200.103 42.9373H179.971V25.6018Z" fill="#78C2FF"/>
<defs>
<linearGradient id="paint0_linear" x1="104.114" y1="200.766" x2="375.696" y2="200.766" gradientUnits="userSpaceOnUse">
<stop stop-color="#40D5E6"/>
<stop offset="1" stop-color="#5577FF"/>
</linearGradient>
<linearGradient id="paint1_linear" x1="120.13" y1="188.664" x2="346.876" y2="188.664" gradientUnits="userSpaceOnUse">
<stop stop-color="#404B61"/>
<stop offset="0.486" stop-color="#3C4860"/>
<stop offset="1" stop-color="#2F3E5C"/>
</linearGradient>
<linearGradient id="paint2_linear" x1="419.35" y1="272.942" x2="477.691" y2="272.942" gradientUnits="userSpaceOnUse">
<stop stop-color="#3076A1"/>
<stop offset="1" stop-color="#639C38"/>
</linearGradient>
<linearGradient id="paint3_linear" x1="414.282" y1="264.38" x2="490.455" y2="264.38" gradientUnits="userSpaceOnUse">
<stop stop-color="#3076A1"/>
<stop offset="1" stop-color="#639C38"/>
</linearGradient>
<linearGradient id="paint4_linear" x1="396.781" y1="252.779" x2="445.915" y2="252.779" gradientUnits="userSpaceOnUse">
<stop stop-color="#3076A1"/>
<stop offset="1" stop-color="#639C38"/>
</linearGradient>
<linearGradient id="paint5_linear" x1="410.438" y1="263.474" x2="425.335" y2="263.474" gradientUnits="userSpaceOnUse">
<stop stop-color="#3076A1"/>
<stop offset="1" stop-color="#639C38"/>
</linearGradient>
<linearGradient id="paint6_linear" x1="376.721" y1="266.447" x2="424.814" y2="266.447" gradientUnits="userSpaceOnUse">
<stop stop-color="#3076A1"/>
<stop offset="1" stop-color="#639C38"/>
</linearGradient>
<linearGradient id="paint7_linear" x1="408.923" y1="376.138" x2="449.893" y2="217.866" gradientUnits="userSpaceOnUse">
<stop stop-color="#3076A1"/>
<stop offset="1" stop-color="#639C38"/>
</linearGradient>
<linearGradient id="paint8_linear" x1="423.631" y1="294.026" x2="441.41" y2="294.026" gradientUnits="userSpaceOnUse">
<stop stop-color="#3076A1"/>
<stop offset="1" stop-color="#639C38"/>
</linearGradient>
<linearGradient id="paint9_linear" x1="408.364" y1="326.295" x2="441.234" y2="326.295" gradientUnits="userSpaceOnUse">
<stop stop-color="#FF9340"/>
<stop offset="1" stop-color="#FFCE45"/>
</linearGradient>
<linearGradient id="paint10_linear" x1="408.364" y1="326.295" x2="441.234" y2="326.295" gradientUnits="userSpaceOnUse">
<stop stop-color="#C97332"/>
<stop offset="1" stop-color="#FFCE45"/>
</linearGradient>
<linearGradient id="paint11_linear" x1="233.757" y1="255.862" x2="233.757" y2="407.447" gradientUnits="userSpaceOnUse">
<stop stop-color="#40D5E6"/>
<stop offset="1" stop-color="#5577FF"/>
</linearGradient>
<linearGradient id="paint12_linear" x1="-53.2155" y1="370.122" x2="244.633" y2="370.122" gradientUnits="userSpaceOnUse">
<stop stop-color="#40D5E6"/>
<stop offset="1" stop-color="#5577FF"/>
</linearGradient>
</defs>
</svg>
