<svg width="125" height="49" viewBox="0 0 125 49" fill="none" xmlns="http://www.w3.org/2000/svg">
<path d="M7.05656 45.1483H3.01339L2.53226 46.298C2.37469 46.6812 2.29591 46.9976 2.29591 47.2473C2.29591 47.5782 2.42534 47.8221 2.68419 47.9789C2.83613 48.0718 3.21034 48.1415 3.80683 48.1879V48.5102H0V48.1879C0.410788 48.124 0.748423 47.9499 1.0129 47.6653C1.27738 47.375 1.60376 46.7799 1.99204 45.8799L6.08586 36.4562H6.24624L10.3738 46.1412C10.7677 47.0586 11.0913 47.6363 11.3445 47.8744C11.5358 48.0544 11.8059 48.1589 12.1548 48.1879V48.5102H6.61763V48.1879H6.84554C7.29009 48.1879 7.6024 48.124 7.78247 47.9963C7.90627 47.9034 7.96817 47.7699 7.96817 47.5957C7.96817 47.4912 7.95129 47.3837 7.91753 47.2734C7.90627 47.2212 7.82186 47.0034 7.6643 46.6202L7.05656 45.1483ZM6.76957 44.5038L5.06452 40.4365L3.30882 44.5038H6.76957Z" fill="#0078C1"/>
<path d="M24.3087 44.3644L23.8782 48.5102H13.7154V48.1879H14.0952C14.4272 48.1879 14.6945 48.1269 14.8971 48.005C15.0434 47.9237 15.156 47.7844 15.2347 47.587C15.2966 47.4476 15.3276 47.0818 15.3276 46.4896V38.7207C15.3276 38.1168 15.2966 37.7394 15.2347 37.5885C15.1728 37.4375 15.0462 37.3068 14.8549 37.1965C14.6692 37.0804 14.416 37.0223 14.0952 37.0223H13.7154V36.7001H19.8181V37.0223H19.3201C18.9881 37.0223 18.7208 37.0833 18.5182 37.2052C18.3719 37.2865 18.2566 37.4259 18.1722 37.6233C18.1103 37.7626 18.0793 38.1284 18.0793 38.7207V46.2457C18.0793 46.8496 18.1131 47.2357 18.1806 47.4041C18.2481 47.5666 18.3804 47.6886 18.5773 47.7699C18.718 47.8221 19.0584 47.8482 19.5987 47.8482H20.5525C21.1602 47.8482 21.6667 47.7379 22.0718 47.5173C22.477 47.2966 22.8259 46.9483 23.1185 46.4721C23.4167 45.996 23.6981 45.2935 23.9626 44.3644H24.3087Z" fill="#0078C1"/>
<path d="M35.2808 36.7001V39.8965H34.9769C34.7968 39.1591 34.5971 38.6307 34.3776 38.3113C34.1581 37.9862 33.8571 37.7278 33.4744 37.5362C33.2606 37.4317 32.8864 37.3794 32.3518 37.3794H31.4993V46.4896C31.4993 47.0934 31.5302 47.4708 31.5921 47.6218C31.6596 47.7728 31.7862 47.9063 31.9719 48.0224C32.1633 48.1328 32.4221 48.1879 32.7485 48.1879H33.1283V48.5102H27.1353V48.1879H27.5152C27.8472 48.1879 28.1145 48.1269 28.3171 48.005C28.4634 47.9237 28.5787 47.7844 28.6631 47.587C28.725 47.4476 28.756 47.0818 28.756 46.4896V37.3794H27.9288C27.1578 37.3794 26.5979 37.5478 26.249 37.8846C25.7595 38.3549 25.45 39.0255 25.3205 39.8965H24.9998V36.7001H35.2808Z" fill="#0078C1"/>
<path d="M49.2325 36.7001V37.0223C48.8555 37.0746 48.5657 37.1878 48.3631 37.362C48.0817 37.6059 47.6372 38.2707 47.0294 39.3565L44.5478 43.6328V46.4896C44.5478 47.0992 44.5788 47.4795 44.6407 47.6305C44.7026 47.7757 44.8235 47.9063 45.0036 48.0224C45.1893 48.1328 45.4341 48.1879 45.738 48.1879H46.3795V48.5102H39.956V48.1879H40.5553C40.8929 48.1879 41.1602 48.1269 41.3572 48.005C41.5035 47.9237 41.6188 47.7844 41.7032 47.587C41.7651 47.4476 41.7961 47.0818 41.7961 46.4896V44.1206L39.1035 39.0604C38.5689 38.0617 38.1918 37.4752 37.9724 37.301C37.7529 37.121 37.4603 37.0281 37.0945 37.0223V36.7001H42.5811V37.0223H42.3363C42.0043 37.0223 41.7708 37.0717 41.6357 37.1704C41.5063 37.2691 41.4416 37.3736 41.4416 37.4839C41.4416 37.693 41.6667 38.2184 42.1168 39.0604L44.1849 42.9709L46.2444 39.4087C46.7565 38.5378 47.0125 37.9601 47.0125 37.6755C47.0125 37.5188 46.9394 37.3881 46.7931 37.2836C46.6018 37.1385 46.2501 37.0514 45.738 37.0223V36.7001H49.2325Z" fill="#0078C1"/>
<path d="M54.7771 36.7001L60.4241 44.0248V38.9471C60.4241 38.2388 60.3256 37.7597 60.1286 37.5101C59.8585 37.1733 59.4055 37.0107 58.7696 37.0223V36.7001H62.5511V37.0223C62.0672 37.0862 61.7408 37.1704 61.572 37.2749C61.4088 37.3736 61.2794 37.5391 61.1837 37.7713C61.0937 37.9978 61.0487 38.3897 61.0487 38.9471V48.7802H60.7617L53.0214 38.9471V46.4547C53.0214 47.1341 53.1705 47.5928 53.4688 47.8308C53.7727 48.0689 54.1187 48.1879 54.507 48.1879H54.7771V48.5102H50.7171V48.1879C51.3473 48.1821 51.7862 48.0486 52.0338 47.7873C52.2814 47.526 52.4052 47.0818 52.4052 46.4547V38.1197L52.1605 37.8062C51.9185 37.4926 51.7046 37.2865 51.5189 37.1878C51.3332 37.0891 51.066 37.0339 50.7171 37.0223V36.7001H54.7771Z" fill="#0078C1"/>
<path d="M71.202 41.2203L75.2283 46.4199C75.7967 47.1515 76.2862 47.6479 76.697 47.9092C76.9953 48.095 77.3104 48.1879 77.6424 48.1879V48.5102H71.6831V48.1879C72.0602 48.1531 72.3021 48.0921 72.4091 48.005C72.5216 47.9179 72.5779 47.8105 72.5779 47.6828C72.5779 47.4389 72.319 46.9802 71.8013 46.3067L69.1762 42.9012L68.7542 43.267V46.4896C68.7542 47.105 68.7879 47.4882 68.8555 47.6392C68.923 47.7902 69.0524 47.9208 69.2437 48.0311C69.4351 48.1357 69.7418 48.1879 70.1638 48.1879V48.5102H64.3902V48.1879H64.7701C65.1021 48.1879 65.3694 48.1269 65.572 48.005C65.7183 47.9237 65.8308 47.7844 65.9096 47.587C65.9715 47.4476 66.0024 47.0818 66.0024 46.4896V38.7207C66.0024 38.1168 65.9715 37.7394 65.9096 37.5885C65.8477 37.4375 65.7211 37.3068 65.5298 37.1965C65.3441 37.0804 65.0908 37.0223 64.7701 37.0223H64.3902V36.7001H70.0878V37.0223C69.6995 37.0223 69.4041 37.0804 69.2015 37.1965C69.0552 37.2778 68.9399 37.4143 68.8555 37.6059C68.7879 37.751 68.7542 38.1226 68.7542 38.7207V42.3961L72.9999 38.8513C73.5908 38.3578 73.8862 37.963 73.8862 37.6668C73.8862 37.4462 73.7652 37.272 73.5233 37.1443C73.3995 37.0804 73.0928 37.0398 72.6032 37.0223V36.7001H77.0684V37.0223C76.6689 37.0514 76.3538 37.1268 76.123 37.2488C75.8979 37.3649 75.3746 37.7655 74.553 38.4507L71.202 41.2203Z" fill="#0078C1"/>
<path d="M85.1706 36.5346C86.9939 36.4649 88.4738 37.0136 89.6105 38.1807C90.7528 39.3478 91.324 40.8081 91.324 42.5616C91.324 44.0596 90.8992 45.3776 90.0494 46.5157C88.924 48.0253 87.3343 48.7802 85.2804 48.7802C83.2208 48.7802 81.6283 48.0602 80.5028 46.6202C79.6137 45.4822 79.1692 44.1322 79.1692 42.5703C79.1692 40.8168 79.746 39.3565 80.8996 38.1894C82.0588 37.0165 83.4825 36.4649 85.1706 36.5346ZM85.2719 37.092C84.2253 37.092 83.429 37.6436 82.8832 38.7468C82.4386 39.6526 82.2163 40.9532 82.2163 42.6487C82.2163 44.6635 82.5596 46.1528 83.2461 47.1166C83.7244 47.7902 84.3941 48.1269 85.255 48.1269C85.8346 48.1269 86.3186 47.9818 86.7069 47.6915C87.2021 47.3199 87.5875 46.7276 87.8633 45.9147C88.139 45.096 88.2769 44.0306 88.2769 42.7183C88.2769 41.1564 88.1362 39.9894 87.8548 39.2171C87.5735 38.4391 87.2133 37.8904 86.7744 37.571C86.3411 37.2517 85.8403 37.092 85.2719 37.092Z" fill="#0078C1"/>
<path d="M97.6536 43.1625V46.4373C97.6536 47.076 97.6902 47.4795 97.7634 47.6479C97.8422 47.8105 97.9772 47.9411 98.1685 48.0399C98.3655 48.1386 98.7228 48.1879 99.2405 48.1879V48.5102H93.4248V48.1879C93.9537 48.1879 94.3111 48.1386 94.4968 48.0399C94.6881 47.9353 94.8203 47.8018 94.8935 47.6392C94.9723 47.4766 95.0117 47.076 95.0117 46.4373V38.7729C95.0117 38.1342 94.9723 37.7336 94.8935 37.571C94.8203 37.4026 94.6881 37.2691 94.4968 37.1704C94.3054 37.0717 93.9481 37.0223 93.4248 37.0223V36.7001H98.4133C100.056 36.7001 101.235 37.002 101.95 37.6059C102.665 38.2097 103.022 38.9646 103.022 39.8703C103.022 40.6368 102.791 41.2929 102.33 41.8387C101.868 42.3845 101.233 42.7561 100.422 42.9535C99.8764 43.0929 98.9535 43.1625 97.6536 43.1625ZM97.6536 37.3794V42.4832C97.8393 42.4948 97.98 42.5006 98.0757 42.5006C98.7622 42.5006 99.2912 42.2916 99.6626 41.8735C100.034 41.4497 100.22 40.7964 100.22 39.9139C100.22 39.0371 100.034 38.3955 99.6626 37.9891C99.2912 37.5826 98.7369 37.3794 97.9997 37.3794H97.6536Z" fill="#0078C1"/>
<path d="M110.922 48.1879V48.5102H104.937V48.1879H105.317C105.649 48.1879 105.916 48.1269 106.119 48.005C106.265 47.9237 106.378 47.7844 106.456 47.587C106.518 47.4476 106.549 47.0818 106.549 46.4896V38.7207C106.549 38.1168 106.518 37.7394 106.456 37.5885C106.395 37.4375 106.268 37.3068 106.077 37.1965C105.891 37.0804 105.638 37.0223 105.317 37.0223H104.937V36.7001H110.922V37.0223H110.542C110.21 37.0223 109.943 37.0833 109.74 37.2052C109.594 37.2865 109.478 37.4259 109.394 37.6233C109.332 37.7626 109.301 38.1284 109.301 38.7207V46.4896C109.301 47.0934 109.332 47.4708 109.394 47.6218C109.461 47.7728 109.588 47.9063 109.774 48.0224C109.965 48.1328 110.221 48.1879 110.542 48.1879H110.922Z" fill="#0078C1"/>
<path d="M116.956 43.1277V46.4373C116.956 47.076 116.992 47.4795 117.066 47.6479C117.144 47.8105 117.279 47.9411 117.471 48.0399C117.662 48.1386 118.019 48.1879 118.543 48.1879V48.5102H112.685V48.1879C113.214 48.1879 113.571 48.1386 113.757 48.0399C113.948 47.9353 114.08 47.8018 114.153 47.6392C114.232 47.4766 114.272 47.076 114.272 46.4373V38.7729C114.272 38.1342 114.232 37.7336 114.153 37.571C114.08 37.4026 113.948 37.2691 113.757 37.1704C113.565 37.0717 113.208 37.0223 112.685 37.0223V36.7001H118.003C119.387 36.7001 120.4 36.7988 121.041 36.9962C121.683 37.1936 122.206 37.5594 122.611 38.0936C123.016 38.622 123.219 39.2433 123.219 39.9574C123.219 40.8284 122.915 41.5484 122.307 42.1174C121.919 42.4774 121.376 42.7474 120.678 42.9274L123.43 46.925C123.79 47.4418 124.046 47.7641 124.198 47.8918C124.429 48.0718 124.696 48.1705 125 48.1879V48.5102H121.396L117.707 43.1277H116.956ZM116.956 37.3359V42.5093H117.437C118.219 42.5093 118.804 42.4367 119.193 42.2916C119.581 42.1406 119.885 41.8735 120.104 41.4903C120.329 41.1013 120.442 40.5961 120.442 39.9749C120.442 39.0749 120.237 38.41 119.826 37.9804C119.421 37.5507 118.765 37.3359 117.859 37.3359H116.956Z" fill="#0078C1"/>
<path d="M57.5083 29.5912C53.8578 28.1372 49.8418 25.1409 48.1701 21.7058C46.4983 18.2708 46.2271 14.3602 47.4097 10.743C48.5923 7.1259 51.1432 4.06389 54.5608 2.15909C57.9784 0.254289 62.3823 -0.482914 66.245 0.322234L65.2884 3.05112C62.1031 2.38716 58.774 2.89001 55.9557 4.46079C53.1374 6.03158 51.0338 8.55666 50.0586 11.5395C49.0833 14.5224 49.307 17.7472 50.6856 20.58C52.0642 23.4127 54.4979 25.6484 57.5083 26.8474V29.5912Z" fill="url(#paint0_linear)"/>
<path d="M59.0425 30.0888C62.8997 30.9177 66.9407 30.3328 70.3709 28.4491C73.8012 26.5654 76.3725 23.5191 77.5793 19.9094C78.7861 16.2996 78.5411 12.3874 76.8924 8.94209C75.2438 5.49678 71.8646 2.23659 68.2239 0.760172L67.5888 3.74317C70.5911 4.96069 73.0098 7.21129 74.3694 10.0525C75.729 12.8936 75.931 16.1198 74.9359 19.0966C73.9407 22.0734 71.8202 24.5854 68.9915 26.1388C66.1627 27.6922 62.8303 28.1746 59.6495 27.491L59.0425 30.0888Z" fill="url(#paint1_linear)"/>
<path fill-rule="evenodd" clip-rule="evenodd" d="M59.1667 29.9561V16.599H53.9912C54.321 17.6208 55.0872 19.7376 55.5134 20.0295L53.6107 21.8543C52.3421 19.8835 50.1857 15.0662 51.7079 11.5627C52.7227 9.22701 56.168 4.51186 61.8306 4.33668L62.2872 30.3941L59.1667 29.9561ZM59.1667 13.9714H53.9912C54.4783 9.76713 57.6445 7.98618 59.1667 7.62123V13.9714Z" fill="url(#paint2_linear)"/>
<path d="M66.245 0.249244V11.8546L70.9638 7.62123L72.7144 9.73794L66.8539 15.1392L72.7144 20.8324L70.9638 23.0951L66.245 18.4967V25.7957L63.505 26.1607V0.614194L66.245 0.249244Z" fill="url(#paint3_linear)"/>
<defs>
<linearGradient id="paint0_linear" x1="46.6776" y1="15.2241" x2="78.3146" y2="15.2241" gradientUnits="userSpaceOnUse">
<stop stop-color="#00B6ED"/>
<stop offset="1" stop-color="#122E5F"/>
</linearGradient>
<linearGradient id="paint1_linear" x1="46.6776" y1="15.2241" x2="78.3146" y2="15.2241" gradientUnits="userSpaceOnUse">
<stop stop-color="#00B6ED"/>
<stop offset="1" stop-color="#122E5F"/>
</linearGradient>
<linearGradient id="paint2_linear" x1="46.6776" y1="15.2241" x2="78.3146" y2="15.2241" gradientUnits="userSpaceOnUse">
<stop stop-color="#00B6ED"/>
<stop offset="1" stop-color="#122E5F"/>
</linearGradient>
<linearGradient id="paint3_linear" x1="46.6776" y1="15.2241" x2="78.3146" y2="15.2241" gradientUnits="userSpaceOnUse">
<stop stop-color="#00B6ED"/>
<stop offset="1" stop-color="#122E5F"/>
</linearGradient>
</defs>
</svg>
