<svg width="33" height="31" viewBox="0 0 33 31" fill="none" xmlns="http://www.w3.org/2000/svg">
<path d="M11.5083 29.5912C7.85779 28.1372 3.84177 25.1409 2.17005 21.7058C0.498329 18.2708 0.22711 14.3602 1.40972 10.743C2.59233 7.1259 5.14321 4.06389 8.56079 2.15909C11.9784 0.254289 16.3823 -0.482914 20.245 0.322234L19.2884 3.05112C16.1031 2.38716 12.774 2.89001 9.95568 4.46079C7.13739 6.03158 5.03382 8.55666 4.05858 11.5395C3.08335 14.5224 3.30701 17.7472 4.68559 20.58C6.06416 23.4127 8.49792 25.6484 11.5083 26.8474V29.5912Z" fill="url(#paint0_linear)"/>
<path d="M13.0425 30.0888C16.8997 30.9177 20.9407 30.3328 24.3709 28.4491C27.8012 26.5654 30.3725 23.5191 31.5793 19.9094C32.7861 16.2996 32.5411 12.3874 30.8924 8.94209C29.2438 5.49678 25.8646 2.23659 22.2239 0.760172L21.5888 3.74317C24.5911 4.96069 27.0098 7.21129 28.3694 10.0525C29.729 12.8936 29.931 16.1198 28.9359 19.0966C27.9407 22.0734 25.8202 24.5854 22.9915 26.1388C20.1627 27.6922 16.8303 28.1746 13.6495 27.491L13.0425 30.0888Z" fill="url(#paint1_linear)"/>
<path fill-rule="evenodd" clip-rule="evenodd" d="M13.1667 29.9561V16.599H7.99121C8.32102 17.6208 9.0872 19.7376 9.51341 20.0295L7.61065 21.8543C6.34215 19.8835 4.18569 15.0662 5.70789 11.5627C6.7227 9.22701 10.168 4.51186 15.8306 4.33668L16.2872 30.3941L13.1667 29.9561ZM13.1667 13.9714H7.99121C8.47831 9.76713 11.6445 7.98618 13.1667 7.62123V13.9714Z" fill="url(#paint2_linear)"/>
<path d="M20.245 0.249244V11.8546L24.9638 7.62123L26.7144 9.73794L20.8539 15.1392L26.7144 20.8324L24.9638 23.0951L20.245 18.4967V25.7957L17.505 26.1607V0.614194L20.245 0.249244Z" fill="url(#paint3_linear)"/>
<defs>
<linearGradient id="paint0_linear" x1="0.677578" y1="15.2241" x2="32.3146" y2="15.2241" gradientUnits="userSpaceOnUse">
<stop stop-color="#00B6ED"/>
<stop offset="1" stop-color="#122E5F"/>
</linearGradient>
<linearGradient id="paint1_linear" x1="0.677578" y1="15.2241" x2="32.3146" y2="15.2241" gradientUnits="userSpaceOnUse">
<stop stop-color="#00B6ED"/>
<stop offset="1" stop-color="#122E5F"/>
</linearGradient>
<linearGradient id="paint2_linear" x1="0.677578" y1="15.2241" x2="32.3146" y2="15.2241" gradientUnits="userSpaceOnUse">
<stop stop-color="#00B6ED"/>
<stop offset="1" stop-color="#122E5F"/>
</linearGradient>
<linearGradient id="paint3_linear" x1="0.677578" y1="15.2241" x2="32.3146" y2="15.2241" gradientUnits="userSpaceOnUse">
<stop stop-color="#00B6ED"/>
<stop offset="1" stop-color="#122E5F"/>
</linearGradient>
</defs>
</svg>
